<svg width="32" height="32" fill="none" xmlns="http://www.w3.org/2000/svg"><g clip-path="url(#clip0_0_210)"><path d="M0 16c0 8.823 7.177 16 16 16s16-7.177 16-16S24.823 0 16 0 0 7.177 0 16z" fill="red"/><path d="M15.081 4.956l-.018-.196-.28-.339-.085-.025-.06.086.01.102-.094.085-.01.118.111.06.155.11h.271zm2.152 18.08l-.116-.219-.154-.318-.123-.332-.09-.373-.04-.321v-.311l.033-.367.041-.184-.049-.157-.1-.08-.203-.15-.143-.102-.027-.196-.067-.209-.127-.205-.136-.175-.171-.163-.217-.164-.244-.183-.13-.062-.128-.04-.108.019-.095.062-.04.102.027.184.094.413.163.544.137.326.182.414.13.244.197.36.237.402.188.258.156.21.007.114-.021.094-.088.035-.263.013-.46-.027-.38-.05-.335-.059-.406-.115-.205-.09-.137-.06-.154-.028-.178.007-.094.041h-.13l-.306-.048-.174-.06-.191-.013-.305-.006-.23-.022h-.212l-.21.014-.143.06-.101.027-.035.048.007.095.097.157.182.251.109.046.17.122.196.109.213.069.304.007.271-.028.23-.053.197-.062.082.04.04.082.069.02.168-.006.212.014.108.035.13-.035.419.053.286.041.467.102.341.1.337.116.297.136.115.083.306.013.163-.04.088-.178.094-.217-.024-.174zm-4.793-.696l-.02.048-.037.044-.03.01-.062.002-.056-.017-.025-.02-.037-.047.002-.041.021-.03.072-.023.082-.016.063-.002.03.018.006.035-.009.039zm3.303.421l-.025.033-.079.005-.136-.023-.12-.021-.125-.007-.12-.01-.275-.069-.217-.067-.154-.051-.023-.044.007-.048.03-.012.202.065.09.036.094.021.115.017.191.02.166.026.157.011.127.028.07.018.022.028v.044h.003zm.94-.135l-.024.046-.046.037-.068.016-.036-.017-.012-.039.012-.044.062-.046.046-.012h.051l.017.021v.038h-.001z" fill="#fff"/><path d="M24.133 13.383l-.094-.044v.145l-.076.085-.136.203-.076.05-.212.257-.086.136-.101.229-.11.018-.102-.06-.061-.271.016-.313.07-.29.168-.273.34-.51.204-.414.025-.29-.033-.093-.06.06-.101.253-.155.256-.228.187-.263.254-.392.459-.076-.007-.025-.079-.01-.187.026-.348.12-.39.212-.433.281-.349.349-.297.032-.07-.041-.032-.178.092-.145.094-.246.212-.307.272-.218.298-.214.39-.117.315-.034.314-.017.425.102.442.102.383.196.602.127.722.075.551v.298l-.032.313-.051.256-.095.288-.357.45-.365.331-.468.263-.449.025-.06-.218-.16-.316-.222-.305-.145-.18-.193-.262-.418-.399-.424-.348-.187-.145-.585-.397-.841-.705-.459-.57-.502-.822-.136-.494.034-.306.07-.06.177.12.281.137.229-.01.262.12.281.171.145.117.187.13.194.025.044-.085-.05-.01-.06.025-.094-.06-.084-.126-.12-.196-.23-.212-.229-.086-.126-.025.026-.067h.177l.206.067.297.196.136.06.051-.07-.085-.117-.23-.205-.358-.186-.43-.168-.086-.07.085-.059.194.094.357.06.383.152.202.102.357.05.257-.034.143-.067.195-.12.086-.082.01-.06-.08.007-.076.079-.254.083-.22.035-.188-.025-.18-.143-.16-.19-.194-.143-.29-.06-.28-.093-.12-.076.01-.067.11.016h.247l.247-.016h.253l.137-.025.11.092.178.044h.145l.067-.05-.117-.035-.145-.094-.153-.143-.247-.13-.202-.025-.186-.025-.07-.041.137-.076h.22l.171.05.168.086.272.117.272.01.145-.07.041-.091-.11-.051-.229-.01-.196-.067-.17-.145-.187-.094-.246-.041-.213-.076-.092-.12.017-.06.136.028.17.051.102.076.145.016.017-.076-.152-.12-.044-.108.204.032.194.102.247.028.095.178.253.152.014-.002.056-.023.067-.04-.033-.052-.095.007-.085-.117-.171-.263-.298-.265-.304-.136-.086-.102-.187-.221-.17-.092-.026-.086.076-.05.18.04.355.103.17.059.111.155.178.092h.136l.18.05.196-.034.075-.067-.11-.094-.161-.041-.188-.025-.11-.095-.145-.212-.034-.136-.188-.168-.202-.13-.23-.143-.254-.237-.016-.069h.057l.332.263.34.196.179.136.228.212.205.11.118.035.06-.094-.086-.032-.178-.162-.05-.18-.187-.202-.154-.13-.076-.193-.263-.392-.357-.314-.017-.102.127.017.18.092.288.12.297.016.221.104.237.041.203-.06-.017-.085-.23-.05-.203-.093-.408-.196-.22-.12-.118-.143.04-.05.06.04.092.035.12.01h.196l.168-.018.257-.017.195.076.203.145.085.025.01-.076-.07-.069-.202-.187-.316-.161-.228-.025-.433-.025-.1-.12-.221-.221-.247-.168-.092-.085.075-.06.118.05.212.111.24.086.322.076h.28l.23.256.187.11.067-.069-.253-.373-.398-.288-.333-.079-.28-.295-.248-.145-.338-.085.187-.161.332-.11.247-.077.057-.075-.032-.06-.137-.035-.128-.025-.96.019-.17-.19-.194-.126-.247-.11-.323-.051h-.279l-.076-.102-.263-.281-.316-.288-.194.322-.01.102.093.12.01.102-.067.06-.215.015-.39-.11-.382-.082-.178.006-.29.06.035.102.16-.007.068.011-.002.09-.094.022-.122-.017-.184.04-.138.044-.11.007-.035.048.039.067.084.018.078-.023.09-.04.093-.004.195.01.15.046.178.044.26.117.023.055-.028.045-.122.044-.074.034-.131.088-.2.106-.245.173-.283.113-.22.145-.201.088-.19.046-.165.005-.229.004-.087.023-.051.107-.04.115-.044.079-.11.166-.107.184-.07.09-.007.104.006.145v.155l.094.085.084.044.099-.006.161-.045.183-.055.246-.1.1.006.022.062-.023.06-.083.044-.252.094-.19.056-.036.062-.006.067.062.056.132.016h.106l.134-.005.145-.034.21-.11.138-.028.117-.024.09.03.132-.006.13.016.106.062.166.017.217.067.117.016.183-.033.233.017.102.04.055.093-.011.122-.028.15-.056.173-.078.217-.08.237-.083.217-.055.15-.19.294-.228.288-.205.283-.26.26-.24.203-.153.161-.08.265-.112.132-.143.102-.173.143-.265.161-.224.112-.143.164-.101.132-.102.062-.143.071-.092-.02-.183-.084-.202-.132-.298-.131-.334-.175-.173-.132-.214-.172-.235-.194-.254-.092-.223-.04-.286.06-.203.113-.175.122-.09.224-.062.172-.071.265-.08.162-.082.246-.011.295-.071.173-.08.274-.072.275-.131.256-.071.254-.042.316-.113.265-.07.151-.01.153-.01.256v.448l-.051.184.03.161-.012.265.092.212.071.051.132-.041.122-.11.175-.213.152-.244.06-.202-.04-.163-.05-.203-.063-.244-.06-.255-.032-.194v-.182l.041-.206.102-.314.102-.163.092-.082.07-.11.132-.012.063-.04.092-.083.102-.09.092-.122.04-.143.032-.122.01-.164.03-.143.07-.09.071-.021.093.03.131.07.143.164.153.224.173.202.184.164.163.131.161.071.051.102-.05.05-.173-.039-.244-.02-.316-.063-.304-.06-.367-.011-.214.011-.163.102-.173.152-.143.244-.11.276-.012.203.062.366.143.468.071.367.09.357.063.251.03.235.08.265.063.406.06.143.154.122.143.143.161.245.113.286.173.254.254.244.183.113.122.01.102-.03.062-.143.07-.122.04-.173v-.396l-.05-.114c-.01 0-.01-.07-.01-.08l-.021-.072-.084-.121-.152-.153-.283-.122-.104-.033-.018-.172.01-.11-.195-.224-.122-.287-.101-.406-.083-.375-.14-.295-.051-.357.08-.214.144-.08h.11l.163.143.236.143.243.09.59.286.287.163v.152l.263.151.337.114h.702l-.05.131-.03.071.09.171.173.256.276.275.335.367.286.253.534.41.433.232.326.173.417.283.385.275.332.281.346.468.016.196.079.202.212.153.194.076.12-.017.095-.092.137-.145.032-.196.161-.279.035-.214.026-.237.016-.187.053-.117.108-.053h.104l.007.078-.076.083-.067.18-.051.11v.136l-.018.288-.042.145-.126.219-.171.281-.17.307-.1.398-.052.418.051.465.067.272.162.357.205.424.161.332.221.349.263.323.051.11v.076l-.035.094-.092.152-.145.203-.297.383-.298.323-.271.297-.118.07-.24.091-.143.137-.075.154-.171.212-.193.213-.238.246-.144.254-.086.256-.05.212.009.171.102.109h.373l.161-.017.17-.1.22-.102.035-.086h.075l.118-.05.11-.104.06-.406-.034-.086-.016-.085.06.016.066.018.07-.05.11-.07.117-.152.145-.206.076-.186.016-.153.095-.069.136-.076.11-.067.093-.186.196-.204.366-.34.278-.186.281-.154.067-.067.025-.07.06-.075-.041-.101-.009-.187-.037-.175-.045-.102-.096-.166-.155-.194-.076-.145-.016-.152v-.205l.034-.117.093-.316.094-.152.101-.06.187-.117.22-.19.298-.253.203-.212.204-.237.212-.24.153-.27.127-.23.12-.263.085-.291.026-.27.016-.205.07-.067.075-.019.067.044.06.144.016.195.028.187-.018.126-.017.196v.418l.051.33.06.084.05-.006.026-.06-.035-.136v-.23l.07-.194.032-.282.035-.195.044-.093h.05l.042.042.041.16.035.155-.017.244-.05.332-.155.323-.143.306-.086.263-.016.162.016.186.06.18h.11l.058-.08-.033-.085-.025-.152.101-.137.118-.161.079-.152.186-.297.153-.272.067-.298.06-.391v-.388l-.076-.272-.153-.212-.018-.1.069-.035.085.041.11.136.137.247.058.288.034.383.086.265.01.007.116.263.076.028.035-.07-.009-.04-.057-.197-.01-.195.01-.288.05-.323v-.161l-.018-.137-.136-.272-.117-.196.041-.076.161-.034.221-.101.237-.127.212-.186.272-.367.155-.304.126-.29.042-.466.01-.417-.068-.517-.079-.373-.067-.383-.041-.399.032-.253.07-.316.143-.314.204-.323.076-.205.016-.102-.068-.093zm-11.55-6.148l-.067.067-.094.053-.127.028-.044-.028-.016-.09.037-.127.09-.124.075-.037.067.007.08.067.037.06-.038.124zm.332-.082l-.023.011-.047.002-.036-.018-.03-.035.005-.04.035-.057.027-.018h.037l.033.007.011.034.005.06-.017.054zm.41.378l-.034.016h-.044l-.025-.013-.014-.038.005-.046.025-.028.033-.001.034.01.017.024.011.041-.008.035zm.786-1.19l-.053.015-.064.016-.071.06-.16.097-.219.06-.136.034-.131.01-.068-.007.107-.09.196-.095.195-.087.187-.087.085-.042.065-.01.052.012.042.067-.027.048zm-5.935 9.554l-.07-.016-.034-.067.07-.035.06.007.016.06-.042.051zm.892-3.563l-.048.18-.063.202-.11.17-.06.017-.02-.046v-.09l.01-.122.045-.23.097-.168.05-.06.075-.021.028.041-.004.127zm.491-.676l-.11.041-.106.012-.064-.025-.016-.046.018-.063.056-.039.115-.013.06-.005.04.011.037.035.002.04-.032.052zm.9 1.215l-.022.002-.056-.034-.078-.044-.067-.056-.062-.062-.028-.035-.007-.05.014-.026.023.002.039.007.044.04.051.045.08.048.049.058.03.044.001.04-.01.021zm-1.513 1.21l-.041.058-.042.016-.027-.023.001-.083.07-.12.02-.034.035-.016.033.02v.07l-.021.048-.028.064zm.288 2.142l-.014.02h-.016l-.03-.024-.023-.044-.036-.08-.053-.106-.053-.167-.028-.156-.004-.182.025-.18.013-.021h.025l.025.023.025.109.002.11.044.14.053.15.023.131.032.214-.01.063zm1.028 1.961l.028-.007.067.015.03.032.007.04-.007.046-.04.03-.047-.009-.035-.033-.014-.07.011-.044zm.666-3.105l-.069.005-.09-.013-.062-.028-.145-.09-.143-.107-.162-.097-.055-.041.073-.002.081.03.138.034.127.063.148.064.106.048.055.05.01.047-.012.037zm.767-1.987l-.097.272-.085.26-.15.186-.076.058-.08.03-.046-.033-.005-.06.064-.069.067-.11.086-.186.05-.178.047-.175.09-.168.06-.085.051-.014.046.018.015.056-.037.198zm3.697-5.391l.076-.097.088-.083.078-.052.058-.005.04.025v.07l-.022.08-.087.083-.104.064-.106.028-.05-.016-.007-.041.036-.056zm-.308-1.789l.074-.025.051-.023.064.023.021.047-.048.055-.067.025-.08.005-.03-.056.015-.05zm-.641.598l-.03-.081.044-.09.097-.081.155-.007.113.021.087.06.045.105.036.11-.007.097-.097.036h-.103l-.125-.05-.11-.06-.105-.06zm.378 1.182l-.131.03h-.118l-.022-.04.03-.04.035-.022.23-.163.14-.087.086-.053h.03l.004.062-.057.046-.028.095-.071.11-.128.062zm-1.535 4.214l-.016-.025.005-.063.04-.046.146-.06.302-.093.303-.038h.184l.152.033.143.07.113.111.007.063-.014.044-.048.01-.074-.01-.113-.033-.107-.031-.131-.015h-.163l-.139-.002-.121.012-.137.023-.108.03-.106.023-.069.004-.049-.007zM15.2 18.16l-.154-.097-.26-.173-.404-.271-.163-.11-.173-.136-.189-.173-.138-.108-.166-.162-.108-.113-.068-.104-.025-.124.005-.116.044-.044.076.005.12.072.129.125.095.115.102.102.098.122.125.136.118.131.387.337.214.19.191.173.155.145.03.048.02.035-.06-.005zm.104-5.27l-.048.028-.117.002-.079-.018-.044-.058-.036-.046v-.073l.057-.074.088-.07.082-.011.076.021.023.041.01.093.011.096-.023.07zm.232-3.798l-.048.177-.108.284-.145.24-.161.3-.259.361-.195.206-.137.052-.044-.002-.007-.034.042-.097.166-.256.136-.282.122-.242.217-.42.205-.326.106-.102.08-.014.035.056-.005.099zm.474-1.23l-.025.062-.09.105-.125.06-.125.05-.13.002h-.08l-.028-.037.03-.053.07-.032.125-.06.143-.088.068-.048.101-.05.065.017v.071zm.674 3.888l-.046.014-.06-.005-.038-.04.01-.034.038-.028.06-.005.05.041.003.035-.017.022zm.07-.226h-.07l-.037-.02v-.052l.016-.034.037-.012h.049l.046.03.005.037-.046.051zm.126-.348l-.047.023-.048.007-.05-.012-.017-.034v-.042l.041-.03.051-.009h.05l.029.025.007.04-.016.032zm.065-.293l-.063.018-.069-.001-.036-.025-.002-.028.011-.042.055-.024.06-.01.051.026.019.048-.026.038zm.15-.41l-.035.046-.033.042-.064.013h-.064l-.056-.028-.005-.044.04-.041.03-.035.043-.016.071-.021h.056l.025.03-.009.054zm.092-.343l-.03.048-.053.01-.056.014-.069-.002-.03-.035.005-.05.023-.035.046-.033.071-.01.065.014.028.04v.039zm.097-.254l-.072.03-.055.018h-.07l-.027-.005-.035-.011-.018-.035.009-.044.046-.041.04-.021.043-.018.063-.002.06.02.025.049-.01.06zm.01-.394l-.026.04-.044.037-.064.023-.076.007-.063-.008-.016-.038.01-.03.025-.018.11-.058.053-.011.065.007.025.023v.026zm-.216-.933h.04l.02-.014.01-.041.008-.032.02-.023.034-.002.04.012.038.02.005.045-.005.071-.054.048-.072.035-.03-.005-.03-.012-.03-.037-.004-.041.01-.024zm0-.295V8.22l.03-.03.049-.018.057-.002.035.012.01.03-.02.03-.03.032-.048.012h-.051l-.032-.031zm.003.933l.041-.025.05-.012.047-.004.035.002.013.02v.035l-.016.037-.033.036-.08.035-.04-.005-.036-.012-.01-.039.008-.044.021-.024zm.207-.283l-.011.03-.051.034-.07.025-.038-.01-.037-.02-.007-.038.005-.046.028-.028.04-.028.057-.011.049-.002.033.01.011.032-.009.052zm.019-.976l-.007.04-.025.034-.041.017-.04.01-.034.004-.046-.005L17.102 8l.012-.036.027-.025.031-.016.051-.035.053.002.03.038zm-.071-.339l.027.017.005.04-.003.037-.043.039-.041.016-.028-.005-.021-.011v-.037l.002-.04.03-.032.027-.016.045-.008zm-.054-.19l-.012.04-.03.024-.028.016-.038.005-.03-.018-.006-.033.013-.028.028-.037.028-.014.036-.002.031.019.008.027zm-.378-.746l.068-.004.094-.037.085-.018.071-.005.037.035-.051.076-.051.013-.085.03-.11.062-.105.056-.122.05-.042.006-.034-.012.005-.05-.019-.049V6.72l.04-.1.054-.059.036-.046.036-.046h.056l.039.04-.01.097.008.048zm-.039-.916l.025.016-.009.025-.037.044-.05.005-.061-.009-.035-.016-.025-.03.03-.025.043-.018.067-.002.052.01zm-.318-.357l.116-.012.062.021.049.025.002.041-.041.019-.065.004-.062-.004-.05-.01-.04-.03.03-.054zm.892 11.969l-.055.05-.051.058-.051.107-.017.074-.034.028-.067-.009-.033-.04.012-.14.036-.175.018-.097.044-.122.033-.037.048-.01h.064l.028.027.048.07.01.137-.033.079zm.11-1.667l-.29-.152-.152-.145-.253-.254-.23-.29-.203-.33-.162-.408-.067-.281.032-.162.092-.024.094.044.06.168.052.246.092.257.24.373.322.475.374.483zm.022 4.958l-.066.18-.031.087-.06.136-.047.16-.013.045-.017.03h-.044l-.034-.104-.002-.118.025-.16.057-.222.095-.136.086-.106.076-.01.02.07-.045.148zm.336 2.411l-.017.002-.03-.013-.055-.08-.083-.137-.039-.09-.023-.125v-.116l.005-.069.016-.02h.037l.039.016.05.06.038.103.025.138.002.11.002.04.021.053.021.106-.01.022zm-1.703 3.985l-.035.067-.041.063-.067.044-.065.013h-.027l-.03-.023-.01-.048.012-.06.034-.07.094-.093.071-.044.051-.002.026.02.007.049-.02.084zm.631-1.018l-.035.048-.043.025-.053.018-.04-.012-.022-.041.004-.041.04-.05.078-.047.058-.01.028.017.008.04-.023.053zm1.41-1.407l-.101.15-.136.16-.155.15-.163.17-.153.138-.12.109-.067.044-.044-.002-.021-.035.01-.057.187-.208.262-.283.318-.32.06-.065.09-.057.033.006.027.035-.026.065zm.588-.454l.04-.014.05.002.023.011.002.025-.02.033-.046.041-.041.046h-.028l-.032-.018-.007-.04.013-.039.046-.047zm1.701-4.64l-.01.076-.022.071-.015.065-.048.027-.044-.011-.022-.041-.014-.145-.097-.134-.009-.11.055-.07.057-.017.056.004.046.042.053.067.014.076v.1zm2.87-2.634l-.004.109-.043.237-.06.202-.07.178-.104.193-.118.166-.177.207-.203.194-.104.025-.055-.025-.009-.074.044-.098.06-.109.108-.143.117-.16.11-.172.11-.178.082-.173.049-.177.041-.203.01-.225.008-.203-.013-.177-.021-.206-.018-.194-.012-.108.06-.06.039.021.03.094.06.187.048.223.035.214v.435z" fill="#fff"/></g><defs><clipPath id="clip0_0_210"><path fill="#fff" transform="rotate(-90 16 16)" d="M0 0h32v32H0z"/></clipPath></defs></svg>