<svg width="179" height="40" fill="none" xmlns="http://www.w3.org/2000/svg"><path d="M30.223.537v5.596H14.666v11.162h2.725v-2.637h4.19v10.489h-4.19v-2.52h-2.725v11.777h5.742V40H.193v-5.596h5.743V6.133H.193V.537h30.03zm22.178 0v5.596H24.539V.537H52.4zm-3.34 26.924H33.034v6.855c0 1.075.547 1.612 1.64 1.612h4.366c1.016 0 1.523-.557 1.523-1.67v-3.985h8.496v3.663c0 1.875-.674 3.359-2.021 4.453C45.691 39.463 43.885 40 41.619 40h-9.99c-2.324 0-4.102-.615-5.332-1.846-1.172-1.133-1.758-2.695-1.758-4.687V16.416c0-2.05.762-3.623 2.285-4.717 1.309-.937 2.969-1.406 4.98-1.406h10.167c4.726 0 7.09 2.1 7.09 6.299V27.46zm-8.497-3.37v-7.968c0-1.152-.468-1.729-1.406-1.729l-4.6.03c-1.015 0-1.523.586-1.523 1.758v7.91h7.53zM80.115.538v5.596H51.961V.537h28.154zm-3.281 25.928H68.25v-9.639c0-.39-.03-.635-.088-.732-.059-.118-.186-.176-.381-.176-.508 0-1.387.654-2.637 1.963a15.09 15.09 0 00-2.168 2.783v13.74h2.725V40h-13.74v-5.596h2.813v-19.13H51.96v-4.981h11.016v4.219c.8-.899 1.923-1.768 3.369-2.608 1.855-1.094 3.554-1.64 5.097-1.64 1.66 0 2.969.449 3.926 1.347.977.88 1.465 2.06 1.465 3.545v11.309zM107.771.537v5.596H79.617V.537h28.154zm-3.281 25.928h-8.584v-9.639c0-.39-.029-.635-.088-.732-.058-.118-.185-.176-.38-.176-.508 0-1.387.654-2.637 1.963a15.09 15.09 0 00-2.168 2.783v13.74h2.725V40H79.617v-5.596h2.813v-19.13h-2.813v-4.981h11.016v4.219c.8-.899 1.924-1.768 3.369-2.608 1.856-1.094 3.555-1.64 5.098-1.64 1.66 0 2.968.449 3.925 1.347.977.88 1.465 2.06 1.465 3.545v11.309zM135.34.537v5.596h-28.243V.537h28.243zM132.117 40h-18.574c-2.051 0-3.662-.625-4.834-1.875-1.074-1.133-1.612-2.568-1.612-4.307v-6.445c0-3.418 2.09-5.127 6.27-5.127l8.086.03v-6.417c0-.957-.41-1.435-1.231-1.435H117c-.938 0-1.406.44-1.406 1.318v4.131h-8.497v-3.72c0-3.907 2.403-5.86 7.207-5.86h9.229c4.258 0 6.387 2.012 6.387 6.035v18.076h2.197V40zm-10.664-4.072v-10.4h-4.219c-1.094 0-1.64.488-1.64 1.464v7.178c0 1.172.576 1.758 1.728 1.758h4.131zM163.084.538v5.595h-28.155V.537h28.155zm-3.282 25.927h-8.583v-9.639c0-.39-.03-.635-.088-.732-.059-.118-.186-.176-.381-.176-.508 0-1.387.654-2.637 1.963a15.11 15.11 0 00-2.168 2.783v13.74h2.725V40h-13.741v-5.596h2.813v-19.13h-2.813v-4.981h11.016v4.219c.801-.899 1.924-1.768 3.369-2.608 1.856-1.094 3.555-1.64 5.098-1.64 1.66 0 2.969.449 3.926 1.347.976.88 1.464 2.06 1.464 3.545v11.309zm18.926-22.998c0 .8-.683 1.484-2.051 2.05-1.367.567-3.085.85-5.156.85-2.011 0-3.701-.283-5.068-.85-1.348-.566-2.022-1.25-2.022-2.05 0-.82.674-1.514 2.022-2.08 1.367-.567 3.057-.85 5.068-.85 2.031 0 3.74.283 5.127.85 1.387.566 2.08 1.26 2.08 2.08zM178.552 40h-14.003v-5.596h2.812v-19.13h-2.812v-4.981h13.974v4.98h-2.724v19.131h2.724l.029 5.596z" fill="#fff"/></svg>