<svg width="80" height="80" fill="none" xmlns="http://www.w3.org/2000/svg"><path d="M36.938 3.187l-.061-.653-.931-1.13-.285-.082-.199.284.032.34-.313.284-.032.394.368.198.515.368h.906v-.003zm7.17 60.266l-.383-.73-.515-1.06-.41-1.106-.3-1.245-.132-1.069v-1.037l.109-1.222.137-.614-.163-.522-.336-.269-.675-.5-.477-.338-.09-.653-.223-.698-.423-.684-.454-.583-.57-.544-.723-.547-.813-.608-.432-.208-.429-.131-.361.06-.314.208-.137.34.092.614.314 1.376.544 1.815.454 1.084.608 1.383.432.813.66 1.2.79 1.337.624.86.522.699.022.383-.07.314-.292.115-.876.045-1.536-.093-1.268-.163-1.113-.198-1.354-.384-.685-.301-.454-.198-.515-.093-.592.022-.314.138h-.432l-1.02-.16-.583-.199-.637-.044-1.014-.023-.768-.07h-.707l-.698.044-.477.199-.339.093-.115.16.022.317.323.521.608.839.362.153.57.407.652.361.708.23 1.014.023.906-.093.768-.176.652-.208.276.138.13.269.231.07.56-.023.707.048.362.116.429-.116 1.398.176.954.138 1.558.34 1.136.335 1.123.384.99.455.383.275 1.021.045.544-.138.291-.592.314-.723-.08-.58zm-15.974-2.32l-.07.16-.122.147-.099.032-.208.006-.185-.054-.084-.07-.121-.154.006-.138.07-.099.237-.077.276-.054.208-.007.099.061.022.115-.029.132zm11.008 1.404l-.083.11-.262.015-.455-.076-.4-.07-.416-.023-.4-.032-.915-.23-.723-.225-.515-.17-.077-.146.022-.16.1-.039.675.215.3.121.314.07.384.055.637.07.554.084.521.038.423.093.236.06.07.093v.148h.01zm3.136-.45l-.083.153-.153.121-.224.055-.122-.054-.038-.132.038-.147.208-.154.154-.038h.17l.054.07v.125h-.004z" fill="#fff"/><path d="M67.11 31.277l-.313-.147v.483l-.253.285-.454.675-.253.17-.708.854-.284.454-.34.762-.367.06-.34-.198-.201-.905.054-1.044.23-.97.56-.905 1.136-1.699.679-1.382.083-.97-.109-.307-.198.198-.34.845-.514.854-.762.625-.877.844-1.306 1.53-.252-.023-.084-.262-.032-.624.084-1.162.4-1.299.707-1.443.938-1.162 1.161-.992.109-.23-.138-.109-.592.308-.483.313-.822.707-1.021.906-.73.992-.71 1.3-.39 1.052-.116 1.046-.054 1.415.34 1.475.338 1.277.653 2.006.422 2.406.253 1.837v.992l-.108 1.043-.17.855-.317.96-1.19 1.498-1.216 1.107-1.559.877-1.497.083-.199-.73-.537-1.053-.736-1.014-.483-.599-.647-.876-1.392-1.328-1.414-1.162-.621-.483-1.952-1.322-2.803-2.352-1.53-1.897-1.674-2.743-.454-1.645.115-1.02.23-.199.593.4.937.455.762-.032.873.4.938.57.483.39.624.432.647.083.147-.285-.17-.032-.198.083-.314-.198-.278-.422-.4-.653-.768-.707-.762-.285-.422-.084.086-.224h.592l.685.224.992.653.455.199.17-.23-.286-.391-.768-.685-1.19-.62-1.437-.56-.285-.231.285-.198.646.313 1.19.198 1.274.51.676.338 1.19.17.855-.115.476-.224.653-.4.285-.275.032-.199-.266.023-.252.262-.845.279-.736.115-.624-.084-.599-.476-.537-.63-.647-.478-.966-.198-.931-.313-.4-.253.032-.224.368.054h.822l.822-.054h.845l.455-.084.368.308.592.147h.483l.224-.17-.39-.115-.484-.313-.508-.477-.823-.432-.675-.084-.62-.083-.231-.137.454-.253h.736l.57.17.56.284.905.39.906.033.483-.23.138-.308-.368-.17-.762-.031-.653-.224-.566-.484-.624-.313-.823-.138-.707-.253-.307-.4.054-.198.455.093.57.17.339.252.483.055.054-.253-.505-.4-.148-.362.682.109.646.34.823.092.317.592.844.509.045-.007.186-.076.224-.138-.109-.17-.317.023-.285-.39-.57-.877-.991-.884-1.014-.454-.285-.34-.624-.735-.57-.308-.083-.284.253-.17.598.138 1.184.339.57.198.368.515.592.308h.454l.599.17.652-.116.253-.224-.368-.313-.537-.138-.624-.083-.369-.314-.483-.707-.115-.454-.624-.56-.675-.433-.768-.476-.845-.79-.054-.231h.192l1.107.877 1.13.652.598.455.762.707.681.368.394.115.198-.313-.285-.11-.592-.537-.17-.598-.62-.675-.515-.432-.253-.647-.877-1.305-1.19-1.047-.055-.339.423.055.598.307.96.4.992.054.736.346.79.137.676-.198-.055-.285-.768-.17-.675-.307-1.36-.652-.736-.4-.394-.477.138-.17.198.138.308.115.4.032h.652l.56-.06.855-.055.653.252.675.484.285.083.032-.253-.23-.23-.676-.624-1.053-.538-.761-.083-1.444-.083-.336-.4-.735-.736-.823-.56-.307-.285.253-.198.39.17.707.367.8.285 1.075.253h.932l.768.854.624.368.224-.23-.845-1.245-1.328-.96-1.107-.263-.938-.982-.822-.483-1.13-.285.624-.537 1.107-.369.823-.252.192-.253-.11-.199-.453-.115-.43-.083-3.196.06-.57-.63-.646-.422-.822-.368-1.076-.17h-.93l-.254-.339-.877-.937-1.052-.96-.647 1.075-.032.34.307.4.032.338-.224.199-.713.054-1.3-.368-1.276-.275-.592.022-.967.199.116.339.537-.022.224.038-.006.3-.314.071-.406-.054-.614.13-.461.148-.368.022-.116.16.132.224.278.061.262-.077.301-.13.307-.017.653.032.5.154.591.147.868.39.077.186-.093.147-.407.147-.246.116-.438.29-.67.356-.812.576-.944.378-.736.483-.669.291-.63.154-.554.016-.762.016-.29.076-.17.356-.131.384-.148.262-.368.554-.355.614-.237.3-.022.347.022.483v.515l.314.285.278.147.33-.023.538-.147.608-.185.822-.33.33.016.076.208-.076.198-.279.148-.838.313-.63.186-.122.208-.023.224.208.186.439.054h.355l.445-.016.483-.115.7-.368.461-.093.39-.077.302.1.438-.023.432.054.355.208.554.055.723.224.39.054.608-.109.778.055.34.13.185.314-.038.407-.093.5-.186.575-.262.723-.263.79-.278.724-.186.5-.63.981-.762.96-.684.944-.868.868-.8.675-.508.538-.27.883-.37.438-.477.34-.576.476-.883.538-.746.374-.477.544-.34.442-.338.208-.477.236-.307-.07-.608-.278-.675-.439-.992-.438-1.114-.582-.576-.439-.714-.576-.784-.646-.845-.307-.745-.132-.954.199-.675.377-.582.407-.301.745-.208.576-.237.884-.269.537-.268.823-.039.982-.237.576-.268.915-.237.915-.439.855-.236.844-.138 1.053-.378.883-.236.506-.033.509-.031.854v1.491l-.17.615.1.538-.04.883.308.707.237.17.438-.138.406-.368.583-.707.509-.813.198-.675-.131-.544-.17-.675-.208-.813-.198-.852-.109-.646v-.608l.138-.685.339-1.046.34-.544.306-.275.237-.368.438-.039.209-.13.307-.28.339-.3.307-.406.131-.477.11-.407.031-.544.1-.476.236-.301.237-.07.307.098.438.237.477.544.51.746.575.675.614.544.544.439.538.236.17.34-.17.17-.576-.132-.813-.07-1.052-.209-1.015-.198-1.222-.038-.714.038-.544.34-.576.505-.477.813-.368.921-.038.675.208 1.223.477 1.558.237 1.223.3 1.19.208.839.1.783.268.884.208 1.353.199.477.515.406.477.477.537.816.378.954.576.845.845.813.61.377.407.032.34-.1.207-.476.23-.406.139-.576v-1.322l-.17-.377c-.032 0-.032-.237-.032-.27l-.07-.236-.279-.407-.509-.508-.944-.407-.345-.108-.061-.577.032-.367-.646-.746-.407-.954-.34-1.353-.274-1.252-.467-.982-.17-1.19.269-.714.477-.269h.367l.544.477.784.477.813.3 1.968.954.954.544v.506l.877.505 1.123.378h2.342l-.17.439-.099.236.301.57.576.854.922.916 1.114 1.222.953.845 1.782 1.366 1.444.775 1.084.576 1.392.944 1.284.915 1.107.937 1.152 1.559.054.652.263.676.707.509.646.252.4-.054.317-.307.455-.484.108-.652.538-.931.115-.714.087-.79.054-.624.176-.39.361-.177h.346l.023.262-.253.276-.224.598-.17.368v.455l-.06.96-.138.483-.423.73-.57.937-.566 1.02-.336 1.329-.17 1.392.17 1.552.224.905.538 1.19.685 1.415.537 1.107.736 1.162.877 1.075.17.368v.253l-.115.313-.308.51-.483.674-.992 1.277-.992 1.075-.905.993-.39.23-.8.307-.478.455-.253.515-.57.707-.642.707-.79.823-.484.844-.285.855-.17.707.033.57.339.361h1.245l.537-.054.564-.336.736-.34.115-.284h.252l.39-.17.369-.346.202-1.353-.116-.285-.054-.285.201.055.221.06.23-.17.369-.23.39-.508.483-.685.253-.62.054-.51.317-.23.455-.253.368-.224.307-.62.653-.682 1.219-1.13.928-.62.938-.516.22-.224.087-.23.198-.253-.138-.336-.028-.624-.125-.582-.147-.34-.323-.553-.516-.647-.252-.483-.055-.509v-.681l.115-.39.307-1.053.314-.51.34-.198.62-.39.736-.63.992-.845.675-.708.682-.79.707-.8.509-.9.422-.767.4-.877.285-.97.087-.899.054-.684.23-.224.253-.061.224.147.198.477.055.652.093.621-.061.423-.054.652v1.392l.17 1.098.197.285.17-.023.083-.198-.115-.454v-.768l.23-.647.11-.937.114-.653.148-.307h.17l.137.137.138.538.115.515-.055.813-.17 1.107-.514 1.075-.477 1.021-.285.877-.055.538.055.62.198.599h.368l.192-.263-.108-.284-.084-.51.336-.454.394-.537.262-.506.621-.992.509-.906.224-.991.198-1.306v-1.293l-.252-.906-.51-.707-.06-.336.23-.115.285.138.368.454.454.822.192.96.116 1.277.285.884.032.022.39.877.253.093.115-.23-.029-.139-.192-.652-.029-.653.03-.96.169-1.075v-.538l-.061-.454-.455-.91-.39-.652.138-.253.537-.115.736-.336.79-.422.708-.621.906-1.222.515-1.015.422-.966.138-1.552.032-1.392-.224-1.722-.263-1.245-.224-1.276-.137-1.329.108-.844.23-1.053.478-1.046.681-1.076.253-.684.055-.34-.228-.31zM28.611 10.784l-.224.224-.314.176-.422.093-.147-.093-.055-.3.125-.423.301-.416.247-.122.224.023.268.224.122.198-.125.416zm1.104-.275l-.077.038-.153.007-.122-.061-.1-.115.017-.138.115-.185.093-.061h.122l.108.022.039.115.016.202-.058.176zm1.37 1.26l-.116.055h-.147l-.083-.045-.045-.124.016-.154.084-.093.108-.006.115.032.055.083.038.138-.025.115zm2.617-3.964l-.176.048-.214.054-.237.199-.531.323-.73.198-.454.115-.438.032-.224-.022.355-.3.652-.314.653-.292.621-.29.285-.138.214-.032.176.038.138.224-.09.157zM13.92 39.65l-.23-.054-.116-.224.23-.115.202.022.055.198-.141.173zm2.973-11.878l-.16.598-.208.676-.368.57-.199.053-.07-.153v-.3l.038-.407.147-.768.324-.56.17-.199.246-.07.093.137-.013.423zm1.638-2.253l-.368.138-.352.038-.214-.083-.055-.154.061-.208.186-.13.384-.046.198-.016.138.039.121.115.007.131-.106.176zm3.002 4.051l-.077.007-.186-.116-.259-.147-.224-.185-.208-.208-.093-.116-.022-.17.045-.082.076.006.132.023.147.13.17.154.268.16.16.192.1.147.006.132-.035.073zm-5.047 4.032l-.137.192-.138.055-.093-.077.007-.275.23-.4.07-.115.116-.055.108.07v.23l-.07.16-.093.215zm.96 7.14l-.045.07h-.054l-.1-.083-.076-.147-.122-.27-.175-.351-.176-.554-.093-.522-.016-.608.083-.598.045-.07h.083l.083.077.083.361.007.368.147.467.176.5.077.438.108.714-.035.208zm3.427 6.537l.093-.022.224.048.1.108.022.132-.023.153-.13.1-.16-.03-.116-.108-.048-.237.038-.144zm2.221-10.349l-.23.016-.3-.044-.209-.093-.483-.301-.477-.355-.537-.324-.186-.137.246-.006.27.099.46.115.422.208.493.214.352.16.186.17.032.154-.039.124zm2.557-6.624l-.323.906-.285.867-.5.62-.252.193-.269.1-.153-.11-.016-.198.214-.23.224-.368.285-.621.17-.592.153-.583.3-.56.202-.285.17-.048.154.061.048.186-.122.662zm12.323-17.97l.253-.324.291-.275.263-.176.192-.016.13.083v.237l-.07.262-.29.278-.346.215-.352.093-.17-.055-.022-.137.121-.186zm-1.027-5.962l.246-.084.17-.077.215.077.07.154-.16.185-.224.084-.269.016-.1-.186.052-.17zm-2.138 1.99l-.099-.269.148-.3.323-.27.515-.022.378.07.29.202.148.346.121.368-.022.323-.323.121h-.346l-.416-.17-.368-.197-.349-.202zm1.261 3.942l-.438.1h-.394l-.07-.132.1-.137.114-.07.768-.545.468-.29.284-.177h.1l.015.208-.192.154-.092.317-.237.367-.426.205zm-5.117 14.045l-.054-.083.016-.208.138-.154.483-.198 1.008-.314 1.008-.125h.614l.506.11.477.236.377.368.023.208-.045.147-.16.032-.247-.032-.377-.108-.355-.106-.439-.048h-.544l-.46-.007-.407.039-.454.077-.362.099-.352.077-.23.016-.164-.026zm6.378 20.851l-.515-.323-.867-.576-1.344-.906-.544-.367-.576-.452-.63-.576-.461-.361-.554-.538-.362-.377-.224-.346-.083-.416.016-.384.147-.147.253.016.4.24.429.416.317.384.339.339.33.406.416.455.393.438 1.29 1.12.713.637.637.576.515.483.1.16.07.115-.205-.016zm.346-17.565l-.16.093-.39.007-.263-.061-.147-.192-.122-.154v-.246l.192-.247.291-.23.275-.038.253.07.077.138.032.307.038.323-.076.23zm.774-12.662l-.16.592-.361.944-.484.8-.537.998-.861 1.207-.653.685-.454.176-.148-.007-.022-.115.138-.323.553-.855.455-.937.406-.806.723-1.399.685-1.091.352-.34.269-.044.115.186-.016.33zm1.578-4.102l-.084.208-.3.352-.416.198-.416.17-.432.006h-.27l-.092-.125.1-.176.236-.108.416-.202.477-.291.224-.16.34-.164.214.055v.237h.003zm2.25 12.963l-.154.045-.199-.016-.13-.131.031-.116.131-.093.199-.015.17.137.006.115-.055.074zm.23-.752h-.23l-.126-.07v-.17l.055-.115.122-.039h.163l.153.1.016.121-.153.173zm.422-1.162l-.157.077-.16.023-.17-.039-.054-.115v-.138l.138-.099.17-.032h.163l.099.083.022.131-.05.11zm.215-.976l-.209.061-.23-.006-.121-.083-.007-.093.038-.138.183-.083.202-.029.17.083.06.16-.087.128zm.499-1.366l-.116.154-.108.137-.215.045h-.214l-.186-.093-.016-.147.132-.138.099-.115.147-.054.237-.07h.185l.083.098-.028.183zm.307-1.146l-.1.16-.175.032-.186.048-.23-.006-.1-.115.017-.17.076-.115.154-.109.237-.032.214.045.093.131v.131zm.323-.845l-.237.1-.185.06h-.23l-.093-.015-.116-.039-.06-.115.028-.147.154-.138.131-.07.147-.061.208-.006.202.07.083.16-.032.201zm.032-1.315l-.083.138-.147.122-.215.076-.253.023-.208-.03-.054-.124.032-.1.083-.06.368-.192.176-.038.218.022.083.077v.086zm-.717-3.11h.131l.07-.045.03-.137.029-.106.063-.077.116-.006.137.038.125.07.016.148-.016.236-.182.16-.24.116-.1-.016-.099-.039-.099-.124-.016-.138.035-.08zm0-.982v-.116l.103-.099.16-.06.192-.007.115.038.032.1-.064.099-.1.108-.163.039h-.17l-.105-.103zm.01 3.11l.137-.083.164-.039.16-.016.115.007.045.07v.115l-.055.122-.108.121-.27.116-.13-.016-.122-.039-.032-.13.026-.148.07-.08zm.691-.944l-.038.1-.17.114-.23.084-.128-.032-.125-.07-.023-.126.017-.153.092-.093.132-.093.192-.038.163-.007.108.032.039.11-.029.172zm.06-3.251l-.021.13-.084.116-.137.055-.132.032-.115.016-.153-.016-.039-.093.039-.122.092-.083.103-.054.17-.116.175.007.103.128zm-.236-1.13l.093.055.016.13-.01.125-.144.132-.137.054-.093-.016-.07-.038v-.125l.006-.131.1-.106.092-.054.147-.026zm-.18-.637l-.038.138-.102.077-.093.054-.124.016-.1-.06-.022-.11.045-.092.093-.125.092-.045.122-.006.102.06.026.093zm-1.257-2.483l.224-.016.314-.122.285-.06.236-.016.122.115-.17.253-.17.044-.28.1-.369.208-.352.185-.406.17-.138.016-.115-.038.016-.17-.06-.16v-.291l.13-.33.183-.198.118-.154.122-.154h.185l.129.132-.03.323.026.163zm-.13-3.056l.082.054-.029.084-.124.147-.17.016-.202-.029-.115-.054-.083-.1.1-.083.143-.06.224-.007.173.032zm-1.06-1.19l.384-.039.208.07.163.084.006.138-.137.06-.215.016-.207-.016-.164-.032-.137-.099.099-.182zm2.973 39.897l-.186.17-.17.192-.17.355-.053.246-.116.093-.224-.029-.108-.13.038-.468.121-.585.061-.324.147-.406.11-.122.16-.032h.214l.093.087.16.236.032.455-.11.262zm.368-5.555l-.97-.509-.506-.483-.844-.845-.768-.97-.675-1.097-.538-1.36-.224-.938.105-.537.308-.083.313.147.202.56.17.822.307.855.8 1.245 1.075 1.584 1.245 1.61zm.07 16.525l-.218.598-.105.291-.202.455-.153.531-.045.154-.055.099h-.147l-.115-.346-.006-.393.083-.538.192-.736.317-.454.285-.352.252-.032.07.23-.153.493zm1.12 8.038l-.054.007-.1-.045-.185-.269-.275-.454-.132-.301-.076-.416v-.384l.016-.23.054-.07h.122l.13.053.17.199.125.346.084.46.006.368.006.132.07.175.071.356-.032.073zM40.342 76.79l-.115.224-.137.209-.225.147-.214.044h-.093l-.099-.076-.032-.16.038-.202.116-.23.313-.314.237-.147.17-.007.086.07.023.16-.068.282zm2.106-3.395l-.118.16-.145.083-.175.061-.132-.038-.077-.138.017-.137.13-.163.263-.16.192-.032.093.054.026.138-.074.172zm4.7-4.688l-.339.5-.454.53-.515.5-.544.57-.509.46-.4.362-.224.147-.147-.006-.07-.115.032-.192.623-.692.874-.944 1.063-1.069.198-.214.3-.192.11.022.09.116-.087.217zm1.96-1.513l.13-.048.17.006.077.038.006.084-.067.108-.154.138-.137.154h-.093l-.106-.061-.025-.131.044-.132.154-.156zm5.67-15.466l-.032.253-.077.237-.048.214-.16.093-.148-.038-.073-.138-.048-.483-.323-.445-.03-.368.183-.23.192-.061.186.016.154.137.175.224.049.253v.336zm9.568-8.78l-.017.36-.143.791-.202.676-.23.592-.346.643-.394.553-.592.691-.675.647-.346.083-.185-.083-.029-.247.147-.33.199-.36.361-.477.39-.532.369-.576.361-.592.275-.576.164-.592.137-.675.032-.752.03-.675-.046-.592-.07-.685-.06-.646-.04-.362.2-.198.13.07.1.314.198.62.163.746.115.714v1.45h.004z" fill="#fff"/></svg>