<svg width="52" height="103" fill="none" xmlns="http://www.w3.org/2000/svg"><path d="M25.995 75l4.772-6.3C35.748 62.046 52 39.372 52 26.975 52.001 10.84 41.553 0 26 0 10.449 0 0 10.84 0 26.976c0 13.35 19.084 38.872 21.255 41.73L25.995 75z" fill="url(#paint0_linear_12_469)"/><path d="M24.469 10.589l-.03-.327-.466-.565-.143-.041-.099.142.016.17-.157.142-.016.197.184.1.258.183h.453v-.001zm3.585 30.132l-.192-.364-.257-.53-.205-.554-.15-.622-.066-.534v-.519l.054-.611.07-.307-.082-.261-.168-.134-.338-.25-.238-.17-.045-.326-.112-.349-.211-.342-.228-.291-.284-.272-.362-.274-.406-.304-.216-.104-.215-.066-.18.03-.157.105-.07.17.047.307.157.688.272.907.227.542.304.691.216.407.33.6.395.669.312.43.26.349.012.192-.035.157-.146.057-.438.023-.768-.047-.634-.081-.557-.1-.676-.192-.343-.15-.227-.1-.258-.046-.296.012-.156.068h-.216l-.51-.08-.292-.099-.318-.022-.508-.011-.384-.036h-.353l-.349.023-.238.099-.17.046-.058.08.012.159.161.26.304.42.181.077.285.203.326.18.354.116.507.011.453-.046.384-.088.326-.104.138.068.065.135.116.035.28-.011.353.024.181.057.214-.057.7.088.476.069.78.17.568.167.561.192.495.227.192.138.51.022.272-.068.146-.296.156-.362-.04-.29zm-7.987-1.16l-.035.08-.06.074-.05.016-.104.003-.093-.027-.042-.035-.06-.077.003-.069.035-.05.118-.038.138-.027.104-.003.05.03.01.058-.014.065zm5.504.703l-.041.054-.132.008-.227-.038-.2-.035-.208-.012-.2-.016-.457-.115-.362-.112-.258-.085-.038-.073.011-.08.05-.02.337.108.15.06.158.036.192.027.318.035.277.042.26.019.212.046.118.03.035.047v.074h.005zm1.568-.226l-.041.077-.077.06-.112.028-.061-.027-.02-.066.02-.073.104-.077.077-.02h.085l.027.036v.062h-.002z" fill="#fff"/><path d="M39.555 24.634l-.157-.074v.242l-.126.142-.227.338-.127.084-.353.428-.142.227-.17.38-.184.031-.17-.1-.1-.452.027-.522.115-.484.28-.453.568-.85.34-.691.04-.485-.054-.153-.099.099-.17.422-.257.427-.38.312-.44.423-.652.765-.127-.012-.041-.13-.016-.313.041-.58.2-.65.354-.722.469-.58.58-.497.055-.115-.069-.054-.296.153-.241.157-.412.354-.51.453-.365.496-.355.65-.195.526-.058.523-.027.707.17.738.17.638.326 1.003.21 1.203.127.919v.496l-.054.521-.085.428-.158.48-.596.748-.608.554-.779.438-.748.042-.1-.365-.268-.526-.368-.507-.242-.3-.323-.438-.696-.664-.707-.58-.31-.242-.977-.661-1.402-1.176-.764-.949-.837-1.371-.227-.823.057-.51.116-.1.296.2.468.228.381-.016.437.2.469.285.241.195.312.216.323.042.074-.143-.085-.016-.099.042-.157-.1-.139-.21-.2-.327-.384-.354-.38-.142-.212-.042.043-.112h.296l.343.112.496.327.227.099.085-.115-.143-.195-.384-.343-.595-.31-.718-.28-.143-.115.143-.1.323.157.595.1.637.254.338.17.595.084.427-.057.238-.112.327-.2.142-.138.016-.1-.133.012-.126.131-.422.14-.369.057-.312-.042-.299-.238-.268-.315-.324-.239-.483-.099-.466-.157-.2-.126.017-.112.183.027h.412l.41-.027h.423l.227-.042.184.154.297.074h.241l.112-.085-.195-.058-.242-.157-.254-.238-.411-.216-.338-.042-.31-.041-.116-.069.228-.126h.368l.284.084.28.143.453.195.453.016.242-.115.069-.154-.184-.085-.381-.016-.327-.112-.283-.241-.312-.157-.411-.069-.354-.126-.153-.2.027-.1.227.047.285.085.17.126.241.027.027-.126-.252-.2-.074-.18.34.054.324.17.411.046.159.296.422.254.022-.003.093-.039.112-.068-.054-.085-.159.011-.142-.195-.285-.439-.496-.441-.507-.227-.143-.17-.311-.368-.285-.154-.042-.142.126-.085.3.069.592.17.285.099.184.257.296.154h.227l.299.085.326-.058.127-.112-.184-.157-.27-.068-.311-.042-.184-.157-.242-.353-.057-.228-.312-.28-.338-.216-.384-.238-.422-.395-.027-.115h.095l.554.438.565.326.3.228.38.353.34.184.198.058.099-.157-.143-.054-.296-.27-.084-.298-.31-.338-.259-.216-.126-.323-.438-.653-.596-.523-.027-.17.212.027.299.154.48.2.496.027.368.173.395.069.338-.1-.028-.142-.384-.085-.337-.153-.68-.327-.368-.2-.197-.238.069-.085.099.069.154.058.2.016h.326l.28-.03.427-.028.326.126.338.242.142.042.017-.127-.116-.115-.337-.312-.527-.269-.38-.041-.722-.042-.168-.2L29.62 14l-.411-.28-.154-.142.127-.1.195.085.353.184.4.143.538.126h.465l.384.427.313.184.111-.115-.422-.622-.664-.48-.554-.132-.468-.49-.412-.242-.564-.143.312-.269.553-.184.412-.126.095-.126-.054-.1-.227-.057-.215-.042-1.598.03-.285-.315-.323-.21-.411-.185-.538-.085h-.465l-.127-.17-.438-.468-.526-.48-.324.538-.016.17.154.2.016.169-.112.099-.357.027-.65-.184-.638-.137-.296.01-.483.1.058.17.268-.012.112.02-.003.15-.157.035-.203-.027-.307.066-.23.073-.184.011-.058.08.066.112.139.03.13-.038.151-.065.154-.008.326.016.25.077.296.073.433.195.039.093-.047.074-.203.073-.123.058-.22.146-.334.177-.406.288-.472.189-.368.242-.334.145-.316.077-.276.008-.381.008-.146.038-.084.178-.066.192-.074.131-.184.277-.177.307-.119.15-.01.173.01.242v.258l.157.142.14.074.164-.012.269-.073.304-.093.411-.165.165.008.038.104-.038.1-.14.073-.418.157-.316.093-.06.104-.012.112.104.092.22.028h.177l.223-.008.241-.058.35-.184.23-.046.196-.039.15.05.22-.011.216.027.177.104.277.027.362.112.195.027.304-.054.389.027.17.066.092.156-.02.204-.046.25-.092.287-.131.362-.132.395-.139.362-.093.25-.315.49-.38.48-.343.472-.434.434-.4.338-.254.268-.134.442-.186.22-.238.169-.288.238-.442.269-.373.187-.238.272-.17.221-.17.104-.238.118-.154-.035-.303-.139-.338-.22-.496-.218-.557-.292-.288-.219-.357-.288-.392-.323-.422-.154-.373-.065-.477.099-.337.189-.292.203-.15.373-.104.288-.118.441-.135.27-.134.41-.02.492-.118.288-.134.457-.119.458-.219.427-.118.422-.069.527-.189.441-.118.253-.016.255-.016.427v.745l-.085.308.05.268-.02.442.154.354.119.084.219-.068.203-.184.291-.354.255-.406.099-.338-.066-.272-.085-.338-.104-.406-.099-.426-.054-.323v-.304l.069-.342.17-.523.169-.272.153-.138.119-.184.219-.02.104-.065.153-.139.17-.15.154-.204.065-.238.055-.203.016-.272.05-.239.118-.15.118-.035.154.05.219.118.238.272.255.373.288.337.307.272.272.22.269.118.084.17-.084.084-.288-.065-.407-.036-.526-.104-.507-.099-.611-.019-.357.02-.272.169-.288.253-.239.406-.184.46-.019.338.104.612.239.779.118.611.15.595.104.42.05.391.134.442.104.677.1.238.257.203.238.239.27.408.188.477.288.422.422.406.306.19.203.015.17-.05.104-.238.115-.203.069-.288v-.66l-.085-.19c-.016 0-.016-.118-.016-.134l-.035-.118-.14-.204-.254-.254-.472-.203-.172-.055-.03-.288.015-.184-.323-.372-.203-.477-.17-.677-.138-.626-.233-.49-.085-.596.134-.357.239-.134h.184l.272.238.392.239.406.15.984.477.477.272v.253l.439.252.561.19h1.171l-.084.218-.05.119.15.285.288.427.461.457.557.612.477.422.89.683.723.387.542.288.696.472.641.458.554.469.576.779.027.326.131.338.354.254.323.127.2-.027.159-.154.227-.242.054-.326.27-.466.057-.356.043-.396.027-.312.088-.195.18-.088h.174l.01.131-.125.138-.113.3-.084.183v.227l-.03.48-.07.242-.21.365-.285.469-.284.51-.168.664-.085.696.085.776.112.453.27.595.341.707.27.554.367.58.439.538.084.184v.127l-.057.156-.154.255-.241.337-.496.639-.496.537-.453.496-.195.116-.4.153-.239.227-.126.258-.285.354-.322.353-.395.411-.241.423-.143.427-.085.354.017.284.17.181h.621l.27-.027.28-.168.369-.17.058-.142h.126l.195-.085.184-.173.1-.676-.057-.143-.027-.142.1.027.111.03.116-.084.184-.116.195-.254.241-.342.127-.31.027-.255.158-.115.227-.127.185-.112.153-.31.326-.341.61-.565.464-.31.469-.258.11-.112.044-.115.099-.126-.07-.168-.014-.312-.062-.292-.073-.17-.162-.276-.258-.323-.126-.242-.027-.254v-.341l.057-.195.154-.527.157-.254.17-.1.31-.194.368-.316.496-.422.337-.354.341-.395.354-.4.254-.45.211-.383.2-.439.143-.485.043-.45.027-.342.115-.112.127-.03.112.074.099.238.027.326.047.31-.03.212-.028.326v.696l.085.55.099.142.085-.012.041-.099-.057-.227v-.384l.115-.323.054-.469.058-.326.074-.154h.084l.07.069.068.269.058.257-.028.407-.084.553-.258.538-.239.51-.142.439-.027.268.027.31.1.3h.183l.096-.131-.054-.143-.042-.254.168-.227.197-.269.131-.253.31-.496.255-.453.112-.496.1-.652v-.647l-.127-.453-.255-.353-.03-.168.115-.058.143.069.184.227.227.411.096.48.057.639.143.441.016.012.195.438.127.046.057-.115-.014-.069-.096-.326-.015-.326.015-.48.084-.538v-.269l-.03-.227-.227-.454-.195-.327.069-.126.268-.058.368-.168.395-.211.354-.31.453-.612.258-.507.21-.483.07-.776.016-.696-.113-.86-.13-.623-.113-.639-.069-.664.055-.422.115-.526.239-.524.34-.537.127-.343.027-.17-.114-.154zm-19.25-10.247l-.111.112-.157.088-.211.047-.074-.047-.027-.15.062-.211.15-.208.124-.061.112.011.134.112.061.1-.062.207zm.553-.137l-.039.019-.076.003-.061-.03-.05-.058.008-.069.058-.093.046-.03h.06l.055.011.02.058.008.1-.03.089zm.684.63l-.057.027h-.074l-.041-.022-.023-.063.008-.076.042-.047.054-.003.058.016.027.042.02.068-.014.058zm1.31-1.982l-.089.024-.107.027-.118.099-.266.162-.365.099-.227.057-.22.016-.111-.01.177-.151.327-.157.326-.146.31-.145.143-.069.107-.016.088.02.07.111-.046.079zM12.96 28.82l-.115-.027-.058-.112.115-.058.101.011.027.1-.07.086zm1.486-5.94l-.08.3-.104.337-.184.285-.099.027-.035-.076v-.15l.02-.204.073-.384.161-.28.085-.1.123-.034.047.068-.006.212zm.82-1.126l-.184.069-.176.02-.107-.042-.028-.077.03-.104.094-.066.191-.022.1-.008.069.019.06.058.004.065-.053.088zm1.5 2.026l-.038.003-.093-.058-.13-.073-.111-.093-.104-.104-.047-.058-.01-.084.021-.042.039.003.066.011.073.066.085.077.134.08.08.096.05.073.003.066-.017.037zm-2.523 2.016l-.069.096-.068.027-.047-.038.004-.138.115-.2.035-.058.058-.027.054.035v.116l-.035.08-.047.107zm.48 3.57l-.022.035h-.027l-.05-.042-.038-.074-.061-.134-.088-.176-.088-.277-.046-.26-.009-.305.042-.299.022-.035h.042l.042.038.041.181.003.184.074.234.088.25.039.219.054.356-.018.104zm1.714 3.268l.046-.011.112.024.05.054.011.066-.011.077-.066.05-.08-.015-.057-.054-.024-.119.019-.072zm1.11-5.174l-.115.008-.15-.023-.104-.046-.242-.15-.238-.178-.27-.162-.092-.068.123-.004.135.05.23.058.211.104.247.107.176.08.093.085.016.076-.02.063zm1.279-3.312l-.162.453-.142.433-.25.31-.126.097-.135.05-.076-.055-.008-.1.107-.115.112-.184.142-.31.085-.296.077-.291.15-.28.1-.143.086-.024.076.03.025.094-.061.33zm6.161-8.986l.127-.161.145-.138.131-.088.096-.008.066.042v.118l-.035.131-.146.14-.172.107-.177.046-.084-.027-.011-.069.06-.093zm-.513-2.98l.123-.042.085-.039.107.039.035.077-.08.092-.112.042-.134.008-.05-.093.026-.085zm-1.07.995l-.049-.135.074-.15.162-.135.257-.01.189.034.146.101.073.173.06.184-.01.162-.162.06h-.173l-.208-.084-.184-.1-.174-.1zm.631 1.97l-.219.05h-.197l-.035-.065.05-.069.057-.035.384-.272.234-.146.142-.088h.05l.008.104-.096.077-.047.158-.118.184-.213.103zm-2.558 7.023l-.027-.041.008-.104.069-.077.241-.1.504-.156.504-.063h.307l.253.055.239.118.188.184.011.104-.022.074-.08.016-.123-.016-.189-.055-.177-.052-.22-.024h-.272l-.23-.004-.203.02-.227.038-.181.05-.176.038-.116.008-.081-.013zm3.189 10.426l-.258-.162-.434-.288-.672-.453-.271-.184-.288-.225-.316-.288-.23-.181-.277-.269-.18-.189-.113-.172-.041-.208.008-.192.073-.074.127.008.2.12.214.208.159.192.17.17.164.203.208.227.197.22.644.56.357.318.319.288.257.241.05.08.035.058-.102-.008zm.172-8.783l-.08.047-.195.003-.13-.03-.075-.096-.06-.077v-.123l.096-.124.145-.115.138-.019.126.035.039.069.016.154.019.161-.038.115zm.388-6.33l-.08.295-.181.472-.242.4-.268.5-.43.603-.327.342-.227.088-.074-.003-.011-.058.069-.161.276-.428.227-.468.204-.404.361-.699.343-.545.176-.17.134-.022.058.092-.008.165zm.789-2.052l-.042.104-.15.176-.209.1-.207.084-.216.003h-.135l-.046-.062.05-.088.118-.055.208-.1.238-.146.112-.08.17-.082.107.028v.118h.002zm1.124 6.482l-.076.022-.1-.008-.065-.066.016-.057.065-.047.1-.008.084.07.003.057-.027.037zm.116-.376h-.116l-.062-.036v-.084l.027-.058.06-.02h.082l.077.05.008.061-.076.087zm.21-.581l-.078.038-.08.011-.084-.019-.028-.057v-.07l.07-.049.084-.016h.081l.05.042.011.065-.025.055zm.108-.488l-.104.03-.115-.003-.061-.042-.003-.046.019-.069.091-.041.1-.015.086.042.03.08-.043.064zm.25-.683l-.058.076-.055.07-.107.022h-.107l-.093-.047-.008-.073.066-.07.05-.057.073-.027.119-.035h.092l.042.05-.014.09zm.153-.573l-.05.08-.087.016-.093.024-.115-.003-.05-.058.008-.085.038-.057.077-.055.119-.016.107.023.046.065v.066zm.162-.423l-.119.05-.092.03h-.116l-.046-.008-.058-.019-.03-.057.014-.074.077-.069.066-.035.073-.03.104-.004.101.036.042.08-.016.1zm.016-.657l-.042.069-.073.06-.108.039-.126.011-.104-.014-.027-.063.016-.05.041-.03.184-.096.088-.019.11.011.04.039v.043zm-.359-1.555h.066l.035-.023.014-.069.015-.052.032-.039.058-.003.068.02.063.034.008.074-.008.118-.091.08-.12.058-.05-.008-.05-.02-.05-.062-.007-.068.017-.04zm0-.492v-.057l.051-.05.08-.03.097-.003.057.019.016.05-.032.049-.05.054-.081.02h-.085l-.053-.052zm.005 1.556l.069-.042.082-.02.08-.007.057.003.022.035v.058l-.027.06-.054.061-.134.058-.066-.008-.06-.02-.017-.065.013-.073.035-.04zm.346-.472l-.02.05-.084.057-.116.041-.063-.016-.063-.035-.011-.062.008-.077.046-.046.066-.047.096-.019.082-.003.054.016.02.054-.015.087zm.03-1.626l-.011.066-.042.057-.069.027-.065.016-.058.008-.076-.008-.02-.046.02-.06.046-.042.051-.028.085-.057.088.003.051.064zm-.118-.565l.046.027.008.066-.005.062-.072.066-.069.027-.046-.008-.035-.019v-.062l.003-.066.05-.053.046-.027.074-.013zm-.09-.318l-.02.069-.05.038-.047.027-.062.008-.05-.03-.01-.055.021-.046.047-.062.046-.023.061-.003.051.03.013.047zm-.629-1.242l.112-.008.157-.06.142-.031.119-.008.06.058-.084.126-.085.022-.14.05-.185.104-.176.093-.203.085-.069.008-.057-.02.008-.084-.03-.08v-.146l.065-.165.091-.099.06-.077.06-.077h.093l.064.066-.015.162.013.081zm-.065-1.528l.041.027-.014.042-.063.074-.084.008-.101-.015-.058-.027-.041-.05.05-.041.071-.03.112-.004.087.016zm-.53-.595l.192-.02.104.036.082.042.003.068-.069.03-.107.009-.104-.008-.082-.016-.069-.05.05-.091zm1.486 19.949l-.092.085-.085.096-.085.177-.027.123-.058.047-.112-.015-.054-.065.02-.234.06-.293.03-.161.074-.203.054-.061.08-.016h.107l.047.043.08.118.016.228-.055.13zm.184-2.778l-.484-.254-.253-.242-.422-.422-.384-.485-.338-.549-.269-.68-.112-.469.053-.268.154-.042.156.074.101.28.085.41.154.428.4.622.537.792.622.805zm.036 8.263l-.11.299-.052.145-.1.228-.078.265-.022.077-.027.05h-.074l-.057-.173-.003-.197.041-.269.096-.368.159-.227.142-.176.126-.016.035.115-.076.247zm.56 4.019l-.027.003-.05-.022-.093-.135-.137-.227-.066-.15-.038-.208v-.192l.008-.116.027-.035h.06l.066.027.085.1.062.172.042.23.003.185.003.065.036.088.035.178-.016.037zm-2.84 6.642l-.057.112-.07.104-.111.074-.107.022h-.047l-.05-.038-.015-.08.019-.1.058-.116.156-.157.119-.073.085-.004.043.036.01.08-.033.14zm1.053-1.697l-.06.08-.071.041-.088.03-.066-.018-.038-.07.008-.068.066-.082.13-.08.097-.016.046.028.013.068-.037.087zm2.35-2.344l-.17.25-.226.265-.258.25-.272.284-.254.23-.2.182-.112.073-.074-.003-.035-.058.016-.096.312-.345.437-.472.53-.535.1-.107.15-.096.055.011.045.058-.043.109zm.98-.757l.065-.024.085.003.038.02.004.041-.034.054-.077.07-.069.076h-.046l-.053-.03-.012-.066.022-.066.077-.078zm2.835-7.733l-.016.127-.038.118-.025.107-.08.047-.073-.02-.037-.068-.024-.242-.161-.222-.015-.184.091-.116.096-.03.093.008.077.069.088.112.024.126v.168zm4.784-4.39l-.008.18-.072.396-.1.337-.116.296-.173.322-.197.277-.296.345-.337.324-.173.041-.093-.041-.014-.124.073-.164.1-.181.18-.239.195-.265.184-.288.181-.296.138-.288.081-.296.07-.338.015-.376.015-.337-.023-.296-.035-.343-.03-.323-.02-.18.1-.1.065.035.05.157.1.31.08.373.058.357v.725h.002z" fill="#fff"/><g filter="url(#filter0_d_12_469)"><circle cx="26" cy="84.995" r="6" fill="url(#paint1_linear_12_469)"/></g><defs><linearGradient id="paint0_linear_12_469" x1="26" y1="0" x2="26" y2="75" gradientUnits="userSpaceOnUse"><stop stop-color="red"/><stop offset="1" stop-color="#C70000"/></linearGradient><linearGradient id="paint1_linear_12_469" x1="26" y1="78.995" x2="26" y2="90.995" gradientUnits="userSpaceOnUse"><stop stop-color="red"/><stop offset="1" stop-color="#C70000"/></linearGradient><filter id="filter0_d_12_469" x="8" y="66.995" width="36" height="36" filterUnits="userSpaceOnUse" color-interpolation-filters="sRGB"><feFlood flood-opacity="0" result="BackgroundImageFix"/><feColorMatrix in="SourceAlpha" values="0 0 0 0 0 0 0 0 0 0 0 0 0 0 0 0 0 0 127 0" result="hardAlpha"/><feMorphology radius="2" operator="dilate" in="SourceAlpha" result="effect1_dropShadow_12_469"/><feOffset/><feGaussianBlur stdDeviation="5"/><feComposite in2="hardAlpha" operator="out"/><feColorMatrix values="0 0 0 0 1 0 0 0 0 0 0 0 0 0 0 0 0 0 1 0"/><feBlend in2="BackgroundImageFix" result="effect1_dropShadow_12_469"/><feBlend in="SourceGraphic" in2="effect1_dropShadow_12_469" result="shape"/></filter></defs></svg>