<svg xmlns="http://www.w3.org/2000/svg" xmlns:xlink="http://www.w3.org/1999/xlink" version="1.0" width="1280" height="800"><defs><linearGradient id="a"><stop offset="0" stop-color="#c3bdc9"/><stop offset="1" stop-color="#c3bdc9" stop-opacity="0"/></linearGradient><linearGradient id="b"><stop offset="0" stop-color="#c3bdc9"/><stop offset="1" stop-color="#c3bdc9" stop-opacity="0"/></linearGradient><linearGradient id="c"><stop offset="0" stop-color="#c3bdc9"/><stop offset="1" stop-color="#c3bdc9" stop-opacity="0"/></linearGradient><linearGradient xlink:href="#a" id="d" gradientUnits="userSpaceOnUse" gradientTransform="translate(-1823.355 -1792.208)" x1="915.416" y1="1266.386" x2="1253.621" y2="1533.992"/><linearGradient xlink:href="#b" id="e" gradientUnits="userSpaceOnUse" gradientTransform="translate(-1823.355 -1792.208)" x1="1895.557" y1="1930.344" x2="871.349" y2="1400.367"/><linearGradient xlink:href="#c" id="f" gradientUnits="userSpaceOnUse" gradientTransform="translate(-1823.355 -1792.208)" x1="2428.736" y1="1135.012" x2="1815.911" y2="1603.801"/></defs><path fill="#fff" d="M0 0h1280v800H0z"/><path d="M499.731 41.468l3.68 263.025s.33 23.676 24.348 39.399c6.71 4.392 17.385 7.868 33.777 7.643 4.996-.07 33.587-.216 47.988.181 10.514.29 28.016 7.576 29.244 19.797h2.468c1.058-14.153 18.57-19.491 29.245-19.797 14.331-.41 42.987-.25 47.983-.18 16.392.225 27.067-3.252 33.777-7.644 24.018-15.723 24.348-39.399 24.348-39.399l3.68-263.025H499.731z" fill-rule="evenodd" fill="#dc143c"/><path d="M616.962 58.923c4.571 7.98 6.405 15.532 8.932 22.745 4.185-.569 8.973.57 13.714.902 5.414 1.062 9.695 1.521 13.715.904 2.468-11.365 4.604-17.043 9.518-25.039-2.18 1.483-6.82 2.089-8.64 4.783-2.726-2.425-4.888-.907-6.247 1.66.463-2.049-.148-3.786-2.83-3.953 1.59-2.981-.859-4.46-3.417-3.124-.071-2.597-2.146-2.618-2.294-4.003-.344 1.604-2.163.81-1.903 4.686-2.071-1.664-4.095-.58-3.32 2.343-2.512-.011-3.214 2.058-2.976 4.636-1.724-3.998-4.96-2.777-6.101-1.366-2.021-3.982-3.548-1.468-8.151-5.174z" fill="#f6d155" fill-rule="evenodd"/><path d="M657.284 79.263c-2.912 5.005-4.16 5.353-16.93 3.389-10.1-1.008-19.198-3.86-19.616 5.294 3.341.396 8.2.759 10.317 7.9l-6.18 5.273c-4.366.687-11.252 6.528-15.8 1.096-1.249 5.108 3.44 6.545 8.333 6.34 3.428-.351 4.522-1.272 10.922-2.537l1.696 1.824c9.666.8 14.672 14.625-1.005 22.736-.607 1.877.395 4.13 1.885 4.396-4.558 6.447-12.036 14.49-14.72 9.183-.625.587-2.385 4.973 1.027 7.397-2.592 3.193-3.594 6.97-3.456 11.333-10.332-1.614-17.138-3.365-14.822-13.029 10.994.508 13.973-12.769 12.358-19.5-6.39-26.882-41.069-48.444-66.31-49.147 1.404 7.315 5.917 12.593 11.056 17.46-6.694-3.258-14.462-6.417-22.597-4.76.94 5.777 4.073 12.48 17.256 23.413-9.502-5.642-18.266-11.151-21.353-15.638-1.372 1.85-2.145 9.386 5.968 14.886-2.577-1.028-15.309-.936-19.159 1.885 2.326 5.292 12.952 14.542 21.67 17.395-8.267-1.203-16.017-4.534-23.113-10.55-1.048.94.04 10.734 8.855 14.633-2.855.19-12.594 2.922-15.109 6.06 5.081 6.782 18.073 12.757 24.53 12.782-8.807 1.148-18.424-.623-22.423-1.882.089 2.25-1.805 11.29 22.298 9.798-8.6 4.063-21.578 12.52-23.65 19.977 8.354 3.699 23.335.65 31.083-1.78-22.91 13.965-26.486 15.4-30.736 14.462 5.548 11.728 18.915 3.805 30.464-2.765-14.199 18.998-16.507 28.683-16.205 42.144 11.435-1.376 27.986-17.755 36.806-31.718-10.22 21.024-16.304 37.925-27.449 42.899 12.697 5.03 23.587-10.904 31.238-27.804-2.93 10.698-4.142 33.374-.4 38.92 11.48-7.777 20.176-25.045 26.004-44.844-1.988 9.756-3.46 19.511-7.034 29.267 7.379 1.404 11.15-11.837 13.64-19.593.23.406.503.748 1.216 1.41 9.322-6.764 12.288-22.463 12.943-28.61 8.5 2.416 12.24-.667 14.417-2.248 1.862 2.578 1.98 6.6 2.504 7.15-9.245-7.51-19.16.017-19.566 12.524-1.002 5.22-3.79 11.256-10.77 15.927.436.568 1.411.799 2.676.775-1.216 2.092-2.32 3.9-4.38 5.795.532.31 1.198.351 1.829.464-1.552 2.591-4.141 5.038-6.729 6.284.621.595.974.795 2.856 1.305-1.724 2.29-4.538 4.356-7.191 5.47 5.063 3.008 8.932 3.394 12.071 3.107h.017c-2.004 3.963-5.235 5.97-8.391 7.75.982.922 2.163 1.122 3.145.846-2.854 2.965-5.868 5.3-8.588 6.143.495.371.842.881 2.595.75-1.947 2.403-4.31 4.75-8.488 5.84.827 1.59 2.526 1.346 3.994 1.399-1.141 2.457-4.716 3.282-8.335 4.044 2.727.771 4.581 2.236 2.958 1.854-1.1 1.327-2.18 2.014-4.54 2.368-2.425.363-11.105-2.763-14.604-1.558-.99-1.972-3.387-3.33-5.915-3.33-3.23 0-6.404 2.058-6.553 4.935-.5-.347-2.608-.624-2.288 1.876.761 1.473.798 2.654 5.446 4.444.758.338 1.68.514 2.796.467 1.655-.07 3.508-.902 4.893-2.105l-.028.05c2.315.429 4.863.817 6.27 1.405-3.661.292-4.92 2.313-7.008 3.767-.879-.044-1.605-.262-2.4-.389l.024.028a4.8 4.8 0 00-1.43-.147c-2.614.14-5.249 3.087-5.531 6.426-.058.677.11 1.323.438 1.915l-.039.569c-.762.94-.46 1.69.283 2.232 3.192 1.267 5.095.488 6.243.255 2.896-.351 5.318-2.738 5.318-5.393v-.02l.061.067c3.426-.712 6.803-1.663 8.68-3.045a1.2 1.2 0 01.111.713c-1.192.707-3.152 1.828-4.188 5.285a9.528 9.528 0 00-.883-.044c-3.918-.006-4.885 2.7-4.816 4.91.068 2.155.85 3.543 1.968 4.38-.237 1.342-.073 2.464 1.316 2.912 4.677.734 5.802-1.686 6.742-1.627a2.76 2.76 0 01.247-1.44c1.435-.666 2.408-1.21 2.543-3.906.123-1.674-.162-2.698-.711-3.352l.125.035c0 .005.002.01.003.014a.038.038 0 01.013-.01l.04.01-.006-.04c4.284-3.656 7.027-6.544 8.877-8.984 1.648.379 5.345.292 7.164-.317l-.072.656c-1.717 1.633-.55 5.532 1.715 5.445-.098.367-.08.698 0 1.064 1.47.906 4.186.27 6.26.733 1.062-.125 1.567-.84 1.298-2.296l-.036-.022c1.663-.985 2.779-2.761 2.565-5.008 0-3.104-2.424-5.583-5.413-5.779l.017-.014c-3.2-.345-6.269 1.962-5.599-3.02 8.758-10.37 20.712-26.037 23.98-27.94-.261-.34-.437-.785-.586-1.219 1.297 3.435 6.205 7.057 11.367 6.745-.93-1.768-1.961-3.34-2.33-8.066.772 1.115 2.089 1.638 3.698 1.968-2.413-11.042 1.188-20.126 8.602-28.43-.589 10.685-1.938 21.436-8.424 32.327 3.337 1.045 7.699-2.357 8.3-4.378.71 9.62-8.406 22.004-15.536 16.067-4.477 9.84 6.139 14.616 12.834 8.904-1.131 5.953-5.784 9.453-10.855 10.82-5.072 1.367-10.356-.788-6.984-8.907-.715-.423-10.888-.68-11.175 10.411.303 6.41 4.63 8.821 5.021 8.933-14.506 11.004.109 23.27 12.077 20.887 9.491-1.465 14.885-9.155 18.323-14.73-1.04 4.011-5.331 16.893 5.604 30.843 10.835-16.92 6.252-28.32 5.99-30.13 8.517 13.127 16.915 14.073 21.878 13.748 8.485.136 20.497-13.197 5.224-21.726 7.816-3.72 8.331-19.178-2.678-19.971 2.267 6.124-2.518 9.826-7.797 9.348-5.28-.477-10.145-3.521-12.016-10.378 10.393 4.998 15.217-4.835 11.68-10.173-8.87 7.334-13.065-4.431-14.256-11.433 2.265 1.725 4.227 2.324 8.038 1.76-7.215-9.28-8.9-21.725-9.546-33.414 4.911 7.808 9.76 17.365 9.602 26.727 1.136-.558 2.17-.71 4.216-4.808.185 7.003-.615 7.95-2.984 10.88 3.88 1.631 8.975-1.505 11.4-5.667l.022-.033c7.539 10.177 15.676 20.623 23.591 28.7 1.717 1.793 2.31 3.584-.869 4.214-10.172-3.755-11.24 6.883-7.02 8.322-.332.961-.426 1.958-.135 3.009 2.001.617 6.093-1.042 7.189-1.102.51-.46.514-1.423.5-2.406 1.02-.051 1.72-.587 2.206-1.439 1.984.381 3.908.635 6.418-1.437l7.522 7.555c.39.225-.399 1.032.666 1.136-.836 5.017 1.072 5.588 2.71 6.853-.337 4.8 6.848 2.033 7.552 2.306.76-.449.826-.967.702-1.504.835-.876.444-1.32.17-1.94 3.599-5.487-1.506-9.67-4.314-9.19-2.987-3.279-5.14-4.657-7.553-6.62 4.936 1.862 12.552 3.968 14.74 5.581.832 5.599 5.741 3.286 9.36 3.478 1.123-1.579.52-2.069 0-2.61 4.76-6.141-5.285-11.18-9.56-7.552-2.537-2.34-4.733-2.75-7.02-3.678.954-.96 2.976-1.71 7.522-2.004 2.039 1.35 4.076 1.825 6.115.333.877 1.92 2.622 1.423 3.242 1.07 1.491-1.72 1.533-4.332 1.94-6.718-.407-.865-1.055-1.43-2.173-1.405-3.088-5.281-9.052-2.07-9.393.3-5.14.42-9.712 1.077-15.142 3.245-1.79.54-3.495-1.398-5.013-2.51 1.374-.548 2.573-1.175 2.54-2.34-2.199-.215-4.346-.061-6.887-2.673l.67-1.804c-1.962-.6-4.07-2.03-6.651-6.084.54-.323 1.052-.86 1.504-1.805-2.934-.678-5.336-2.23-7.289-4.512.7-.343 1.363-.939 1.974-1.905-2.737-1.652-5.37-3.089-10.615-9.923l-.058-.1c5.522.922 11.29.378 14.703-2.104-2.714-.756-7.503-2.335-9.64-6.467 1.06-.087 1.642-.294 2.3-.48-4.14-2.735-5.238-4.213-6.289-6.43.872.088 2.118-.308 2.534-.915-2.67-1.201-3.841-2.864-4.793-4.675 1.097.023 2.252.237 3.139-.441-10.55-4.759-9.083-29.426-20.407-29.5-5.04.412-5.956 1.504-8.555 2.831.762-2.11 2.054-4.088 3.4-6.051 6.185 2.889 11.088 1.26 12.75-.189.844 9.914 4.023 20.552 10.905 25.875 1.18-.664 2.597-1.518 3.461-2.472 1.228 9.21 4.667 21.314 12.389 20.31-3.559-8.868-3.502-17.779-3.895-26.64 3.237 26.004 11.218 41.17 17.815 45.717 3.04-4.015 5.304-22.995 3.83-34.394 6.486 11.74 13.685 22.612 19.72 22.552 2.733-.027 5.769-2.264 7.602-2.83-9.459-3.817-15.88-21.233-21.69-32.077 10.9 17.07 23.84 24.758 29.942 25.914.219-5.279 1.387-20.048-12.185-40.511 24.256 12.84 29.41 4.548 30.83.125-10.946 3.814-25.709-10.256-35.596-14.728l-.133-.392c14.467 6.603 28.663 8.878 37.497 3.311-7.552-11.652-14.865-15.897-22.814-18.891 15.706 1.743 20.855-3.6 21.179-9.449-5.732 1.937-11.034 2.24-17.867 1.147 15.03-3.029 17.74-9.405 17.592-10.043-3.85-2.991-11.12-6.36-17.687-6.978 18.123-6.512 12.362-12.651 11.689-14.578-5.636 5.282-15.457 9.05-17.193 8.893 8.46-4.411 15.795-15.952 15.32-17.256-4.227-2.175-12.98-2.068-16.497-1.005 3.52-3.862 8.14-10.471 3.878-15.969-4.1 5.795-8 8.877-11.894 11.902 3.534-4.47 7.64-9.6 9.046-20.099-5.293.694-10.09.175-16.96 4.71 3.942-4.924 6.368-9.77 6.848-15.638-23.673 1.661-51.344 14.072-64.697 45.014-3.876 9.09-.852 24.561 11.33 22.797 1.922 7.807-3.243 12.577-14.466 12.233-.238-2.614.58-7.791-2.637-10.518 2.726-.176 3.26-1.579 3.83-2.77-7.326-1.69-6.14-4.121-4.774-17.137.963.4 2.062.169 2.895-.602-3.027-2.791-2.027-7.954-.5-24.219.307-7.088-1.153-10.637-2.709-11.86.938-.476 1.553-1.247 1.069-3.015 3.388-.595 1.953-4.73.558-6.07-.68 1.843-3.584 2.523-6.337.48 3.328-1.517 3.358-5.292.816-7.914zm13.692 174.794c.113.135.23.263.347.388-.118-.118-.235-.24-.352-.366a.096.096 0 01.006-.022zm-69.276.502c-.328 1.227.254 4.582.324 6.814 1.122.552 3.103-.02 5.374-.885l-.366.158c-1.709.633-3.745 1.281-5.024.766l-.4-4.994a4.908 4.908 0 01.08-1.857l.012-.003zm-.836.233c-.188.055-.38.103-.577.144.19-.045.381-.091.577-.144zm71.545.61c2.502 1.83 5.591 1.881 6.73 1.608.065-.143.122-.287.173-.43-.04.161-.086.325-.136.491-2.358.36-4.632-.03-6.767-1.669zm-86.234 41.753v.006l-.006-.003.006-.003zm64.183 2.779c2.353 2.469 11.426 9.181 21.95 5.937.875 5.948-4.178 8.188-8.168 7.375-3.9-.795-9.766-3.907-13.782-13.312zm-20.912 1.52c-3.415 6.499-9.076 11.993-14.115 13.316-5.039 1.322-9.734-1.183-7.905-7.725 10.882 3.643 19.724-2.8 22.02-5.59z" fill="#fff" fill-rule="evenodd"/><path d="M579.247 181.027c-3.674-4.34-3.136-7.084-3.02-8.616-4.054-3.06-2.988-4.269-3.686-5.507 1.406 2.479 2.812 4.12 4.219 4.352 2.68 2.456 5.359 3.281 8.038 4.886-16.386-8.957-11.87-19.945-11.68-23.095-2.56.086-4.441-.441-5.818-1.42.472-4.442 2.803-8.052 7.772-10.482-.622.216-1.243.511-1.865.622-.583-.121-1.997-3.783-.222-6.174 1.02-.645 3.777-.873 6.573.223 1.653-3.327 3.794-6.289 8.26-7.506 1.103 1.14 2.967 4.537 1.643 10.437 1.833.679 3.625 1.533 5.108 3.73-.46 1.875-.918 2.404-1.377 2.887 7.166.075 7.863-9.982-.126-11.04 1.293-9.468-10.846-15.118-16.129-3.438-9.72-2.607-12.33 4.966-8.66 10.88-1.186.868-10.803 7.961-1.643 18.12-.019 5.005 1.253 9.867 8.038 14.124 1.95 5.737 3.184 5.75 4.575 7.017zm120.485-52.859l1.293-2.454c8.75-1.365 14.038 4.489 10.614 11.41 7.064 6.04 3.178 13.889-1.095 15.455 5.101-3.747 2.295-4.904 1.427-4.842.272-.125.7-.362 1.061-.663-.282-3.302-1.579-6.427-6.667-10.182 2.514-2.784 2.261-5.428 1.924-7.297-2.8-.73-5.281-.499-7.463.63l-1.094-2.057zm-12.106 17.015c.404-1.366.775-3.56 3.25-5.638a38.678 38.678 0 00-2.587 2.09c-3.181-1.291-5.222-4.205-5.705-5.97 1.946-2.516 6.579-2.151 7.23-1.991-1.345-5.073.4-8.84 1.66-10.282 4.193.387 6.365 2.546 8.059 4.478l1.26-2.256c-1.145-3.56-4.656-6.24-8.788-5.39-3.453.366-7.372 3.365-5.805 10.399-10.412 4.195-5.979 14.178 1.426 14.56z" fill="#dfdde2" fill-rule="evenodd"/><path d="M664.973 162.994c-.383 3.839-1.137 6.638-1.957 9.254 14.15-2.124 35.108-5.769 32.272-21.327-2.576 1.875-5.152 2.218-7.728 2.255-.44-2.215-.685-4.57.1-7.661-2.338 3.167-5.098 4.362-7.961 5.075 12.805 5.715-5.418 15.82-13.035 12.404h-1.691z" fill="#f1eef0" fill-rule="evenodd"/><path d="M613.87 168.825c.406 4.405 1.773 9.765 3.12 14.728-.897-1.417-3.619-10.047-3.12-14.728z" fill="#e8e6eb" fill-rule="evenodd"/><path d="M655.968 165.682c-3.42 13.554 11.662 12.238 1.08-1.664 10.288 6.298 3.542 15.716 3.025 17.824-1.615-7.27-7.98-9.105-4.105-16.16z" fill="#c3bdc9" fill-rule="evenodd"/><path d="M587.81 128.554l-5.11 15.013c-1.264-.537-2.44-1.044-4.084-2.95.04-5.201 4.642-11.685 9.195-12.063z" fill="#fff" fill-rule="evenodd"/><path d="M591.872 157.805l-9.205-14.223c1.438-.032 3.117.006 5.116-.473 2.71 2.54 5.723 9.14 4.09 14.696z" fill="#c3bdc9" fill-rule="evenodd"/><path d="M589.268 138.862c2.773.771 4.697 2.574 5.015 3.7l-6.495.602c.621-1.343 1.087-2.831 1.48-4.302zm-16.096 2.846c-1.212-1.75-1.206-5.338.05-6.074l5.415 4.997c-1.441.334-4.063.484-5.465 1.077z" fill="#fff" fill-rule="evenodd"/><path d="M567.45 151.48l15.173-7.832c.319-.195-2.156-2.543-4.034-3.011-4.051-.515-10.794 4.556-11.14 10.842z" fill="#fff" fill-rule="evenodd"/><path d="M-905.129-538.658c-88.17 252.446 291.652 291.558 392.902 299.094l-12.217-63.27c-183.679-8.168-354.995-48.692-329.636-186.741-33.183-20.767-40.294-30.118-51.049-49.083z" fill="url(#d)" fill-rule="evenodd" transform="translate(660.463 199.343) scale(.08882)"/><path d="M-904.91-539.316c-20.32 9.984-49.445 14.423-77.665 18.766-73.103 306.199 401.323 330.363 492.164 341.631-14.27-28.278-17.853-43.245-21.943-61.698-240.766-15.592-463.415-105.773-392.557-298.7z" fill="url(#e)" fill-rule="evenodd" transform="translate(660.463 199.343) scale(.08882)"/><path d="M691.549 123.523c2.364 4.874 4.893 10.612 6.677 16.068 1.02-1.492 2.017-2.988 4.058-4.706-1.119-5.12-3.673-10.538-10.735-11.362z" fill="#c3bdc9" fill-rule="evenodd"/><path d="M691.554 123.487c2.381 4.996 5.116 10.977 6.69 16.088l-5.747-.828c-3.406-3.701-4.22-11.074-.943-15.26z" fill="#fff" fill-rule="evenodd"/><path d="M682.727 135.643c1.49-1.706 4.667-2.246 7.229-1.806.58 1.417 1.515 3.42 2.562 4.953l-9.791-3.147zm25.401-5.92l-5.862 5.228 3.806 1.992c3.067-2.63 2.221-7.258 2.056-7.22z" fill="#c3bdc9" fill-rule="evenodd"/><path d="M702.27 134.865c-.94.195-4.212 4.71-3.998 4.67l14.635 7.463c.055-2.533-2.274-8.75-10.637-12.133z" fill="#c3bdc9" fill-rule="evenodd"/><path d="M698.222 139.494l-10.548 13.622c6.749-.293 9.456-3.292 11.817-7.019l-1.27-6.603z" fill="#c3bdc9" fill-rule="evenodd"/><path d="M708.134 129.723c-2.261-.754-5.247-.514-7.328.64.693 1.463 1.161 3.268 1.495 4.573l5.833-5.213zm-9.914 9.787l14.708 7.487c-2.69 2.218-11.194.15-13.474-.847l-1.234-6.64z" fill="#fff" fill-rule="evenodd"/><path d="M698.242 139.54l-5.762-.82c-6.395 2.68-5.265 13.6-4.78 14.397l10.542-13.576z" fill="#fff" fill-rule="evenodd"/><path d="M692.427 138.755l-9.696-3.125c.477 2.338 3.332 4.978 5.501 5.865.462-.42 2.6-2.381 4.195-2.74zm7.228 7.38c-1.796 2.645-2.352 3.345-4.338 4.692 3.43 15.744-19.188 19.68-32.265 21.517-.128 2.168-.814 3.997-1.444 5.663 2.358-.165 48.783-1.057 38.047-31.872z" fill="#fff" fill-rule="evenodd"/><path d="M444.15-596.703c70.408 257.856-159.842 331.365-431.056 355.945-6.6 16.046-12.936 33.433-19.535 51.35 368.128-25.716 560.76-144.711 510.531-392.795-23.635-3.615-42.235-8.904-59.94-14.5z" fill="url(#f)" fill-rule="evenodd" transform="translate(660.463 199.343) scale(.08882)"/><path d="M547.276 306.806c2.627 1.212 5.874.388 7.628-.116.942.897-.29 4.428 2.498 7-1.593.697-10.31-1.984-10.126-6.884zm-3.746-18.821c1.091 3.482 4.176 3.855 5.434 4.578-.033 1.316-3.408 1.251-3.53 6.015-2.358-.213-5.64-5.724-1.904-10.593zm17.53 28.778c4.25.718 5.79-1.563 6.743-1.69.495 1.39 2.395 3.203 4.24 4.15-.862 3.122-11.168 2.44-10.984-2.46zm32.783-11.641c-.249-.53-5.132.06-6.014-.726-.612.756-.793 3.251-2.64 4.2 1.18 2.132 9.341 1.426 8.654-3.474z" fill="#f6d155" fill-rule="evenodd"/><path d="M603.144 261.649c.73-.086 1.433-.189 2.03-.364-2.87 3.453-7.653 9.474-12.457 14.547-4.817 5.087-9.2 10.103-7.536 14.653-3.34-3.32-.374-6.56 4.145-11.905 4.905-5.8 10.437-12.484 13.818-16.931zm-6.044 36.825c0 2.365-1.966 4.552-6.706 4.33 5.342-5.863-5.457-6.224-2.887-8.616 7.165-4.492 10.126 2.453 9.593 4.286zm-5.102 5.155c1.548.326 2.522-1.6 2.863-.62.667 1.939-2.832 2.295-2.863.62zm-36.153-20.294c-1.089-.044-.779 4.363-7.24 4.186-.115-.03-.722.004-1.063.61-.785 1.474 1.853 4.48 4.256 4.303 2.096-.155 3.848-1.357 4.935-2.851.492-.277 3.922-2.179 3.639-1.358-4.025 1.965-3.02 3.208 3.361 3.673 4.025-.597 7.44-4.081 8.885-4.805-4.112.712-12.87-2.025-14.903-2.04-.288-.748-.877-1.362-1.818-1.713l-.052-.006zm-7.221 22.507a1.479 1.479 0 01-.601.823c1.14.726 4.203.531 4.543.282-.338-.008-2.856-.16-3.942-1.105zm30.09-18.271c-5.474 2.672-9.24 12.326-22.828 11.058-.339 1.187-1.093 1.425-1.793 1.787-2.834-.038-6.1.64-6.068 2.41.04 2.145 3.34 3.486 5.552 3.22 2.238-.27 4.572-2.406 4.574-4.55v-.003c.074-.174.188-.313.422-.31 15.04-3.25 17.349-10.973 20.14-13.613zm2.398.266c-.596 3.651-12.445 14.545-12.996 18.111-.629-.487-1.536-.837-3.43-.738 1.1 5.455-3.454 7.125-4.67 6.19-.007 2.465 3.582 3.489 5.907 3.042 2.734-.525 5.022-4.709 3.437-7.256.361-4.51 6.293-5.824 8.776-11.622 2.19-.022 2.522-3.41 5.241-4.041-.571-1.758-2.798.53-2.265-3.686zm-34.999-.007c.349 2.16 1.316 3.068 2.92 4.403-1.291-.462-2.567-.824-3.98-2.072 1.297.393.312-2.67 1.06-2.33zm28.383-5.798c2.51.581 5.805.811 10.285.55-6.517 2.29-9.44 1.512-10.285-.55zm8.215-4.099c.01.35-.527 1.022-1.025 1.453 3.144-.06 6.21-.709 8.438-3.195-2.07.943-4.416 1.727-7.413 1.742zm4.442-7.184c-.229.42-1.047 1.308-1.663 1.952 2.595.29 7.773-.914 10-3.4-2.069.943-5.34 1.433-8.337 1.448zm6.065-6.905c-.465.504-1.996 1.989-2.565 2.468 2.595.29 8.452-1.785 10.68-4.27-2.07.942-5.118 1.787-8.115 1.802zm8.34-7.674c-.16 2.98-1.164 4.877-2.248 6.141.899-.293 1.798-.487 2.696-.899-.086-1.647-.238-3.594-.449-5.242z" fill="#dfdde2" fill-rule="evenodd"/><path d="M685.043 302.15c2.585.632 5.734-1.058 7.241-1.09.703 1.386.976 2.892 3.866 3.867-1.907 2.118-9.077 2.82-11.107-2.777zm28.884 11.734c-.952.939-2.006 1.94-3.812 3.021 3.234 2.943 9.812-.361 9.556-3.212-.588-1.13-2.484 1.308-5.744.19zm12.604-10.318c.056 3.831-.437 4.837-.87 6.152 1.842 1.255 6.604-1.727 7.104-6.234-.499-1.07-2.522.796-6.234.082zm8.739-21.18c-1.37.345-.553 5.001-2.123 6.479 1.288.715 2.16 2.429 3.103 3.975 3.022-2.29 2.91-8.807-.98-10.454z" fill="#f6d155" fill-rule="evenodd"/><path d="M688.337 301.715c1.45-.438 3.02-1.177 3.593-.98.876-3.091-1.179-1.295-3.593.98zm-2.042-2.478c2.838-.029 6.811.455 7.786-3.321 4.393 2.111 8.999-1.95 7.976-5.69 0 0-1.418 6.46-10.508 2.369-1.817-.266-4.331.883-4.165 2.123.121 1.583 3.237 2.93-1.09 4.519zm24.038-3.158c2.307 2.337 3.78 4.503 3.267 6.261 1.428-2.062 1.565-.819 1.879-.027 1.702 1.313 2.979 5.292-1.28 7.868 2 .542 2.165 2.326-.027 2.967.095 1.885 5.123-.463 5.58.3.391-.172.522-.734.627-1.334.424-.577.473-1.247.027-2.042 3.249-5.403-.784-8.356-4.22-8.957-2.107-2.2-3.95-3.519-5.853-5.036zm.164-5.826c3.462 2.19 8.174 3.9 12.631 6.806 4.457-4.441 7.745 2.892 1.362 3.376 1.611 2.97 8.415 2.775 8.221.408 4.236-8.028-7.25-9.995-9.528-7.105-3.477-1.962-6.658-4.164-11.652-5.091 9.888 4.249 11.587 5.581 9.858 5.811-1.574.21-7.11-2.929-10.892-4.205zm3.041-6.174c2.717-1.185 8.61-1.022 10.195-2.44 2.6-4.735 7.424-3.483 8.958-.401 1.097-.011 1.919.227 2.04 1.103-1.012 2.242-.364 7.731-3.21 6.384.52-.401.265-.802 0-1.203-1.21 1.217-1.217-.171-1.236-.736-1.822 2.137-2.744 1.784-4.078 1.471.323-.133.467-.49.434-1.07 5.323-2.06.705-8.307-3.61-2.473-1.464.438-7.263-.865-9.493-.635zm-42.619-29.983l-.2.635c2.192 1.988 21.167 22.882 26.808 31.822-.845-1.898-.49-2.683-3.844-6.686 8.584 4.812 12.805.542 12.3-.4-.698.081-1.15.178-1.528-.02-7.932 4.048-13.816-2.662-17.324-7.1 4.436 3.538 7.354 4.172 11.967 4.445.458-.803.519-1.21.635-1.671-.402-.076-.789-.183-1.103-.435-5.397 2.039-11.877-2.056-16.947-8.925 4.824 3.466 8.278 3.13 11.565 3.176.509-.583 1.205-1.092 1.304-1.839-.463.036-.825-.132-1.203-.267-3.39 1.18-11.693.78-15.677-6.184 2.766 1.857 5.841 2.953 9.76 1.972.78-.598 1.627-1.187 1.805-1.871-4.856 1.23-9.58 1.212-13.905-2.608 1.23.012 2.525-.427 3.844-1.036-2.55.213-5.179-.05-8.257-3.008z" fill="#dfdde2" fill-rule="evenodd"/><path d="M612.048 105.251c9.432 5.043 20.3-6.48 27.922-.22.825.049.935-.566.802-1.092-8.865-7.948-18.308 3.755-28.724 1.312zm-3.435 144.833l-.745.787c-.917 4.14-3.086 7.447-5.598 10.612 2.297.373 5.118-.926 7.847-2.106-1.696-3.167-2.06-5.277-1.504-9.293z" fill="#c3bdc9" fill-rule="evenodd"/><path d="M611.253 244.569c1.31 2.6 3.81-1.659 5.014-2.808-1.577 5.63-4.717 11.324 2.14 16.613-3.511.356-4.49 1.877-1.237 5.348-6.353-3.127-9.94-8.311-5.917-19.153z" fill="#dfdde2" fill-rule="evenodd"/><path d="M616.535 241.494c-2.189 11.12 1.42 15.464 5.047 16.513-1.389-12.018 3.411-20.605 10.062-27.176-.445-11.2-2.016-16.227-3.243-24.3.088 3.74 2.739 13.98.94 21.142-1.871 7.444-7.202 14.671-12.806 13.82z" fill="#cecad5" fill-rule="evenodd"/><path d="M594.44 252.96c6.308.42 11.44-1.573 15.61-5.85-2.287 5.583-7.485 8.198-15.209 7.42 2.794-.503 2.865-.979-.401-1.57zm-.775-6.39c-.602.942-1.081 1.394-1.56 1.843 9.953 1.296 15.502-3.46 19.24-7.61 5.514.314 9.319-3.264 12.621-6.902-3.716 2.943-7.526 5.367-11.865 4.822-4.263 6.199-10.267 9.083-18.436 7.847zm3.876-7.564c-.742 1.552-.979 1.527-1.37 2.033 3.372.701 7.993-.61 15.883-7.185 7.798-.183 11.063-5.297 13.283-7.516-4.145 3.58-8.35 5.48-12.622 5.53-4.136 4.222-8.667 7.656-15.174 7.138zm2.6-6.24l-1.418 2.222c2.715-.151 6.288-.04 13.898-7.043 5.857-1.236 11.098-5.619 15.694-13.284-3.82 4.711-7.31 9.761-15.032 10.448-1.969 4.512-7.176 6.393-13.142 7.657zm64.149 9.266c-.528 4.042-1.432 7.708-3.215 10.494.19 1.324.151 2.648.094 3.971 2.73-2.78 4.738-10.694 3.12-14.465zm3.97 1.938c2.936 7.626.304 17.77-9.076 19.523 2.9 1.204 11.595-2.764 12.81-14.56l7.139 8.037c.385-1.848.64-3.714-.71-6.43-5.647-1.188-7.453-3.408-10.163-6.57z" fill="#c3bdc9" fill-rule="evenodd"/><path d="M672.893 246.428c3.837 1.677 10.532 4.149 17.254 1.23 1.009.414 2.017.734 3.025.897-2.284 2.392-8.708 2.968-14.607 2.175 8.123-1.064-4.2-1.995-5.672-4.302z" fill="#c5bdcb" fill-rule="evenodd"/><path d="M659.515 232.814c2.786 1.97 5.912 3.163 9.454 3.12 2.644 5.023 10.357 6.42 14.702 6.192.196.686.656 1.284 1.229 1.844-3.63.015-8.279-1.165-15.41-5.673-1.921-.664-8.716-3.823-9.975-5.483z" fill="#c3bdca" fill-rule="evenodd"/><path d="M658.05 225.298c2.777 2.297 5.842 3.516 9.123 3.923 3.37 3.583 7.33 5.43 12.527 6.098l1.087 1.891c-1.632.164-9.537-3.374-12.432-6.05-4.852-1.207-8.493-3.614-10.306-5.862zm.614-6.051c3.21 3.149 6.874 4.43 9.832 4.443 2.22 2.327 4.272 4.73 8.935 5.957.225.636.5 1.175.85 1.56-3.51-.06-8.334-4.932-8.934-5.72-4.71-.676-10.062-3.052-10.683-6.24z" fill="#c3bdc9" fill-rule="evenodd"/><path d="M630.645 204.983c1.017-.39 1.487-.963 1.99-1.525.848 1.163 2.059 1.42 3.25 1.725-2.266-.08-2.552.987-1.46 2.852.465.745 1.26 11.904 1.46 18.64.025 6.24.862 10.292 2.123 13.001-4.932-4.153-2.197-29.28-7.363-34.693z" fill="#dfdde2" fill-rule="evenodd"/><path d="M638.87 205.448c2.757-.259 5.484-.414 8.756-2.388l1.194 1.393c-2.347 5.122-3.669 17.214-5.174 28.06.432-6.903.573-13.066.2-14.793-.756-3.897-.605-6.268-.532-6.899 1.49-5.414-2.596-4.09-4.444-5.373z" fill="#cecad5" fill-rule="evenodd"/><path d="M649.882 205.05l.331.332c-4.65 10.14.022 33.388-10.016 45.107l-.2-4.51c7.607-5.02 5.702-30.645 9.885-40.93zm-16.783 25.008c-.052 16.605 2.683 19.747-8.624 33.566 5.268-4.39 11.159-17.831 10.415-10.15 1.334-2.464 2.625-4.914 2.919-7.031-4.361-7.455-4.17-11.772-4.71-16.385zm9.154 18.308l-2.123 2.521.597 21.957c.271-9.112.726-17.485 1.526-24.478z" fill="#c3bdc9" fill-rule="evenodd"/><path d="M647.295 232.446c-.578 3.394-.961 7.472-1.858 9.751 1.534 17.568 6.312 19.256 10.282 20.83-6.623-9.391-7.93-21.997-8.424-30.581z" fill="#dfdde2" fill-rule="evenodd"/><path d="M634.558 255.464c-2.052 4.642-1.374 13.556-7.164 19.37 4.802-2.46 6.626-8.426 6.766-13.068l.465 4.909c-1.594 10.062-6.162 12.801-9.353 13.4.506-.14 5.514.917 10.116-9.287.15 3.706-2.453 7.833-5.838 9.22 2.96.099 5.893-2.62 7.396-4.71-2.429-7.175-2.474-13.527-2.388-19.834z" fill="#e0dee2" fill-rule="evenodd"/><path d="M636.78 270.555c.497 2.41 1.202 5.923 3.914 9.32l.2 4.245c1.244-1.631 6.047-15.236 6.135-19.7.18-1.415.258-3.059 1.294-1.99.132.098.265.1.398-.067-1.456-.995-2.99-5.907-4.146-7.53.863 5.314 1.537 12.837-3.88 24.047-1.635-1.95-2.802-5.068-3.914-8.325z" fill="#c3bdc9" fill-rule="evenodd"/><path d="M659.955 279.194c-5.838 2.998-10.863-4.233-13.274-8.725l1.083-6.132c.024-.202.455-.354.648-.081.962 6.75 5.233 14.629 11.543 14.938z" fill="#dfdde2" fill-rule="evenodd"/><path d="M645.636 272.81l-.63 1.858c2.252 4.993 4.904 6.73 8.358 7.993-6.783-3.341-7.244-6.596-7.728-9.85z" fill="#dfdde1" fill-rule="evenodd"/><path d="M639.135 281.368l1.791 3.084 1.36-3.018c-.254 8.14-.784 17.97-1.028 27.031-.747-9.087-1.77-18.561-2.123-27.097z" fill="#dfdde2" fill-rule="evenodd"/><path d="M644.376 276.294c-.166.464-.332.903-.498 1.193 6.02 22.33-1.065 34.237-2.653 35.987-4.172-7.404-4.124-14.694-5.041-20.929.537 5.591-.075 12.86 4.776 21.924l.066 3.681c5.911-7.367 9.502-17.593 4.909-39.767-.664-.553-1.053-1.38-1.56-2.09z" fill="#c3bdc9" fill-rule="evenodd"/><path d="M639.036 316.127c.504.81.942 1.63 1.957 2.355 1.307-1.365 1.589-2.047 2.156-2.92-1.103 5.926-1.603 11.7-2.388 17.547-.543-5.78-.943-12.08-1.725-16.982z" fill="#dfdde2" fill-rule="evenodd"/><path d="M649.616 317.09c-1.276-2.852-2.786-5.304-1.824-8.459-.184-.972-.588-1.12-1.028-1.326-.27 1.684-.865 2.88-1.393 4.046 2.26 13.568-.95 20.869-4.677 26.998-6.11-8.226-4.974-17.09-5.074-24.677-1.78 15.4 1.94 22.173 5.008 25.672l.033 3.748c8.703-12.787 7.845-24.661 5.904-30.315.962 1.474 1.84 3.004 3.051 4.312z" fill="#c3bdc9" fill-rule="evenodd"/><path d="M616.648 278.15c1.167 11.187 15.368 7.798 21.128-.663l-.531-1.525c-5.37 6.959-16.82 13.146-20.597 2.188z" fill="#c4bec9" fill-rule="evenodd"/><path d="M636.449 282.263c-5.21 10.811-11.485 18.509-20.133 19.27 5.892.47 12.2-4.315 14.163-6.401 1.417-2.46 3.252-3.334 1.46-.033-.696 1.159-1.388 2.005-2.488 3.051 1.393-.564 4.278-5.018 4.875-5.406.246-4.682 1.305-7.272 2.123-10.48z" fill="#dfdde2" fill-rule="evenodd"/><path d="M634.298 293.125c-.1 1.232-.209 2.48-.188 3.47-8.21 8.435-15.305 11.106-22.843 9.335 6.224.168 13.437.829 23.03-12.805z" fill="#c3beca" fill-rule="evenodd"/><path d="M607.702 298.003c-1.808-4.485-1.13-8.101 2.064-10.835-6.444-.136-13.43 11.85-1.5 17.918-5.97-3.488-6.272-10.764-4.325-13.154 1.301-2.077 3.215-2.657 1.885-.331-.923 3.743.756 5.652 1.876 6.402zm38.604-18.95c1.22 1.954 2.721 3.627 4.69 4.831-.535 10.941 11.5 18.195 19.654 15.104-4.684 3.428-20.122 2.592-24.344-19.935z" fill="#dfdde2" fill-rule="evenodd"/><path d="M648.088 292.797v1.313c5.65 9.407 15.153 9.749 18.059 9.381-8.873-.168-14.43-4.283-18.059-10.694z" fill="#c4c0cd" fill-rule="evenodd"/><path d="M672.714 285.948c7.492 5.198 5.424 13.28-2.627 16.652 6.194-4.077 9.237-9.357 2.627-16.652z" fill="#e1dfe3" fill-rule="evenodd"/><path d="M663.942 304.898c7.119 1.3 19.163-4.287 12.712-16.745 6.526 7.578-.773 21.19-12.712 16.745z" fill="#c3bdc9" fill-rule="evenodd"/><path d="M648.135 300.301c-.062.705-.1 1.142-.281 2.299 6.094 12.162 9.497 12.963 13.462 16.135-7.385-5.518-11.16-11.793-13.181-18.434z" fill="#e0dee3" fill-rule="evenodd"/><path d="M658.126 323.144c1.29.573 2.287.153 3.33.516 9.318 3.246 20.851-2.288 17.402-13.555 6.098 5.941-5.12 23.01-20.732 13.04z" fill="#c4becb" fill-rule="evenodd"/><path d="M674.496 306.821c7.059 6.999-.192 16.68-9.616 13.368 9.987 1.348 13.68-6.93 9.616-13.368z" fill="#c3beca" fill-rule="evenodd"/><path d="M605.967 306.774c-9.654 6.356-4.322 14.227.14 16.042-1.697-1.251-3.508-5.64 1.783-3.19 1.741.747 3.292.827 4.784.704-9.879-3.245-7.684-8.501-6.707-13.556zm28.237-8.864c.233 3.306.596 5.965 1.079 8.02-3.1 6.196-6.844 10.327-10.695 13.274 4.518-4.37 8.004-8.748 9.522-13.368-7.864 12.273-13.315 14.16-18.95 14.447 7.009-1.544 17.244-7.596 19.044-22.374z" fill="#dfdde2" fill-rule="evenodd"/><path d="M635.377 306.4c.215.992.448 1.973 1.032 2.72-9.908 19.106-23.146 18.556-27.675 16.98 8.578.887 5.594-.663 2.815-1.173 10.166.326 19.144-6.574 23.828-18.528z" fill="#c3bec9" fill-rule="evenodd"/><path d="M627.219 201.222c1.279-.864 1.887-1.896 2.63-2.938.274.522.788.976 1.435 1.436-1.875.613-2.53 3.376-3.586 3.39-.167-.613-.173-1.274-.48-1.888z" fill="#c4beca" fill-rule="evenodd"/><path d="M631.39 199.76c2.806 1.054 5.673.918 9.217-1.572.314.325.761.717 1.196 1.102-3.385 2.413-8.926 1.793-10.413.47zm11.984-.024c1.992.336 3.945.788 6.543-.633.376.498.751.891 1.126 1.266-.849.851-5.108.728-7.669-.633zm8.232-5.324c.64.393 1.792 1.545 2.908 2.204a43.884 43.884 0 00-2.486 3.964c-3.697-3.207-1.103-6.586-.422-6.168zm-26.971.915c.53.738.9 1.267 1.243 1.759 2.26-1.57 3.022-3.258 3.753-4.949-.331-.19-.646-.46-.915-.962-1.782 3.154-2.904 3.537-4.08 4.152zm5.16-3.096l-.258.493c4.462 2.56 11.708 4.479 20.92-.188l-.915-1.876c-5.968 4.671-12.716 5.459-19.747 1.571zm21.412-.024c2.63-.496 1.717-3.767 4.152-4.76 3.988 5.998 10.804 4.44 13.579-.118l.445 3.378c-2.63 1.671-6.121 4.574-11.937 1.876-.458.97-.562 2.499-.587 4.15-2.549-.843-4.6-2.185-5.652-4.526z" fill="#c3bdc9" fill-rule="evenodd"/><path d="M659.275 181.068c1.012 1.953.066 6.401.117 7.856-1.94-.266-3.016-1.85-4.057-3.166.205-.038.342-.096.422-.258.24-1.22 2.508-1.783 3.518-4.432z" fill="#c3bdc9" fill-rule="evenodd"/><path d="M641.78 186.555l-.212.282c3.058 1.111 9.399 1.67 13.908-1.384l-.798-1.43c-3.15 2.693-7.19 3.957-12.899 2.532z" fill="#c3beca" fill-rule="evenodd"/><path d="M639.997 185.523c.56.44 1.098.796 1.595.986-4.197 3.84-10.259 2.794-16.37-.422.062-.188.013-.376-.047-.564 7.06 3.824 11.99 2.742 14.822 0z" fill="#c3bdc9" fill-rule="evenodd"/><path d="M624.87 185.5c1.485 2.35-2.285 3.112-2.298 6.614l-1.478-1.877c-.062-2.293 3.005-1.925 3.776-4.737zm-4.104 4.034l-2.885-4.386c-3.037-3.956 7.004-4.742 5.91-12.148.641.506 1.282 1.162 1.923 1.5-.367 5.964-5.589 5.807-5.675 9.898-.667-.253-1.006-.875-1.173-1.689-.258.195-.316.215-.586.492-1.266 1.557.599 2.44 2.486 6.333z" fill="#c3bec9" fill-rule="evenodd"/><path d="M623.514 181.501c2.933.42 5.817-.001 8.573-2.62.474.458.844.942 1.476 1.36-3.515 2.14-8.224 2.431-10.05 1.26z" fill="#c3bdc9" fill-rule="evenodd"/><path d="M633.696 180.34l-.332.266c4.867 2.787 11.662 2.767 15.324.265-.519-.3-.963-.674-1.393-1.061-4.357 3.201-10.916 2.17-13.599.53z" fill="#c4beca" fill-rule="evenodd"/><path d="M648.804 180.871l-.25.315c3.46 1.343 7.73 1.21 10.73-.381-.204-.57-.433-1.121-.812-1.56-3.25 2.562-6.462 2.343-9.668 1.626zm-22.574-6.018c5.078 2.582 10.618.864 13.65-1.806.516.655 1.032 1.036 1.548 1.384-3.787 3.32-13.527 2.905-15.198.422z" fill="#c4bec9" fill-rule="evenodd"/><path d="M641.615 174.5l-.258.235c4.575 3.126 11.562 1.239 13.415.023a21.58 21.58 0 00-.703-1.922c-3.214 2.749-7.998 3.65-12.454 1.665zm-28.237-6.472l.657.375c.697-1 1.272-1.24 1.56-.844.288.396-.242 1.13.504 1.782 2.365-1.88 7.787-3.127 8.443-5.91.996 2.787 4.375 2.867 7.13 7.692-.652-3.664-4.41-4.666-5.95-7.13-1.541-2.463-.63-5.544.602-9.52-2.555 3.461-.543 8.377-4.712 10.578-2.647 1.396-7.695 1.088-8.234 2.977zm21.905-17.402l.14 3.283c-4.335 1.696-.956 12.546-2.673 14.916-.686-9.258-4.497-12.59 2.533-18.2zm3.517 7.88h.517c.563 6.066 6.926 6.644 8.02 12.617-1.352-4.14-4.965-5.348-6.894-7.551-1.11 4.634-6.707 6.012-8.115 8.63-.386-2.156 7.72-5.176 6.473-13.696zm9.616-5.816c-3.334 5.276 3.303 8.672-.281 17.448 1.865-11.478-6.15-10.541-1.079-18.856 1.759 1.709 7.784 3.441 8.35 6.333-2.026-2.857-5.146-3.075-6.99-4.926z" fill="#c3bdc9" fill-rule="evenodd"/><path d="M655.359 158.365c.627 2.03 1.186 2.836 1.688 4.175-1.828 5.965-9.039 8.043-9.428 10.225-1.247-2.788 7.784-4.342 7.74-14.4zm6.848-6.098c-1.135-.24-2.22-.033-3.471-1.313.213 1.93-.105 3.064-.376 4.269 2.363 1.36 3.923 14.022 4.879 14.587-.487-5.446-.268-12.614-3.565-16.51l.14-.657c1 .36 1.768.263 2.393-.376zm-44.232 9.897c2.26-3.388 4.222-7.333 7.123-9.361 2.902-2.028 4.727-1.249 10.56-6.023l2.205-5.77c-4.923 7.231-10.733 12.183-19.138 10.46.5.283.78.975 4.222 1.173-1.782 1.726-3.313 5.454-4.972 9.521z" fill="#c3bdc9" fill-rule="evenodd"/><path d="M616.755 146.17c4.409 2.209 9.796 3.338 19.044-9.85 1.965-.539 3.882-1.606 5.722-3.519-5.947 14.29-22.858 23.025-24.766 13.369z" fill="#dfdde2" fill-rule="evenodd"/><path d="M636.456 154.425c7.054-26.601 28.454-42.493 9.944-56.662 13.423 23.26-7.936 33.096-9.944 56.662z" fill="#f1eef0" fill-rule="evenodd"/><path d="M631.343 131.394c.365 6.988 9.2 1.806 11.304-2.767-3.577 2.414-7.12 4.593-11.304 2.767zm13.274-10.834c.812-1.2.963-.092 2.345.234-3.232 6.738-8.702 8.578-11.68 8.724 4.036-2.095 7.745-4.506 9.335-8.959z" fill="#dfdde2" fill-rule="evenodd"/><path d="M642.452 109.296l.697.696c.973-.04 1.945-.03 2.918-.928.014.847-.305 1.227-.73 1.46.547 4.9.007 7.758-.673 9.944.85-.862 1.543.375 2.309.318 1.22-1.923 3.31-8.609-.043-14.409.094 1.667-1.704 3.382-4.478 2.92z" fill="#c3bdc9" fill-rule="evenodd"/><path d="M630.944 107.168c5.352-2.18 8.41 1.654 10.812 2.017 3.818 5.618-.138 10.509-2.697 13.509 1.7-2.912 4.19-14.6-8.115-15.526z" fill="#c3bdc9" fill-rule="evenodd"/><path d="M635.752 157.52c5.828 2.732 8.54-3.898 11.304-6.472-1.377-3.154-.98-5.743-1.079-8.49-5.063 2.753-4.921 12.74-10.225 14.963z" fill="#cecad5" fill-rule="evenodd"/><path d="M655.663 110.615c-.478.22-.52 2.097-1.172 2.064-.406 13.411-12.61 20.867-15.48 40.245 1.782-2.076 3.063-10.252 7.644-17.766 4.782-7.843 9.48-12.244 9.008-24.543z" fill="#cecad5" fill-rule="evenodd"/><path d="M649.417 135.963c-4.863 13.104 4.773 13.21 5.606 17.479-9.988-3.355-10.687-10.634-5.606-17.48zm1.791-37.579c16.157 10.505 2.297 31.708-3.748 37.413 2.392-5.356 16.956-20.099 3.748-37.413z" fill="#dfdde2" fill-rule="evenodd"/><path d="M656.648 92.58c1.656 3.036 4.319 7.819.398 6.866 6.872 15.254-.667 23.094-4.449 31.577-7.975 20.778 5.226 12.538 3.686 27.03 4.49-5.242-1.353-12.847-1.1-15.467-.324-3.806 2.077-12.03 2.858-17.004.957 2.743 2.427 4.406 4.179 5.472-3.085-10.802 6.551-32.092-5.572-38.474z" fill="#cecad5" fill-rule="evenodd"/><path d="M658.24 128.334c.775 1.075 1.324 2.302 2.587 3.052.648 4.227-5.287 17.63 3.648 18.64-7.27 3.626-11.23-6.78-6.235-21.692z" fill="#cecad5" fill-rule="evenodd"/><path d="M654.327 88.382c1.52.108 5.15 2.657 8.536-.047 2.327 3.163-2.007 5.84-6.564 3.474-1.189-.763 2.584-1.116-1.972-3.427z" fill="#c3bdc9" fill-rule="evenodd"/><path d="M627.361 89.529c1.367 1.516 2.762 2.301 4.046 5.97.951.01 1.902.123 2.853.398-1.603-2.542-3.543-4.88-6.899-6.368z" fill="#dfdde2" fill-rule="evenodd"/><path d="M642.054 85.117c14.06 3.747 12.737-2.777 15.257-3.714 2.496 3.99-4.359 9.168-15.257 3.714z" fill="#c3bdc9" fill-rule="evenodd"/><path d="M624.874 87.903c-.796-.273-1.53-.223-1.99-.166 1.25-10.073 12.418-3.676 18.44.1-7.601-3.641-17.129-8.27-16.45.066z" fill="#c3bec9" fill-rule="evenodd"/><path d="M624.907 87.903c-.626-11.453 15.878 1.63 23.515 2.09-5.314.602-22.82-11.049-22.72-1.89l-.795-.2z" fill="#f1eef0" fill-rule="evenodd"/><path d="M625.968 88.235l1.393.53c.137-1.001.519-2.153 1.028-2.255 3.24-.643.203 1.06.73 1.592a38.7 38.7 0 001.99 1.294c.033-.487.066-1.061.1-1.725.055-2.609 7.544 1.592 12.802 3.317.58 1.555-2.918 3.507-5.672 2.952 2.503 1.979 7.78 1.018 10.05-2.223 4.043.307 4.934-.354 5.838-1.36-3.09-.64-4.517.88-12.26-1.26-7.114-2.04-15.8-8.103-15.999-.862z" fill="#c3bdc9" fill-rule="evenodd"/><path d="M632.402 86.941c.873-.083 1.67.211 2.455.564-1.577 2.441.734 4.77 2.023 4.412.437.397.882.796 2.355 1.193-2.081.435-9.043-1.71-6.833-6.169z" fill="#b6b1bf" fill-rule="evenodd"/><path d="M613.995 101.038c-7.802-15.009 14.769-17.66 17.055-5.241 0 0 5.598.226 10.54 2.853 9.63 6.987 3.78 10.986 1.84 10.664-4.488.079-5.33-4.231-11.881-2.585-1.575.588-1.66 1.397-2.364 1.373-3.905-.992 3.256-8.835 10.945-3.184.686.504 2.184-.48.863-1.957-5.156-5.204-14.093-2.344-16.053-1.857-2.497-4.048-8.018-3.122-10.945-.066z" fill="#f6d155" fill-rule="evenodd"/><path d="M636.383 88.799c.98.783 5.954 1.59 6.07 2.056-1.594 3.758-6.797 2.598-6.07-2.056z" fill="#aaa3b5" fill-rule="evenodd"/><path d="M669.712 190.496c-.036.068-.111.108 0 .281 1.183.584 2.647.936 4.362 1.079l4.08 24.062c-.31-6.261-.746-12.731-.89-18.715-.457-1.15-.792-3.267-1.126-5.394a9.478 9.478 0 001.548-.282c2.584 15.209 8.905 18.27 10.131 19.466-3.344-3.517-7.86-8.463-9.334-19.794 2.24-1.25 3.26-2.766 3.987-3.002.225-.642.082-2.177-.235-2.908-2.25 2.15-4.282 4.682-8.818 4.315-.304-.024 0 .422 0 .422 1.755 2.35-1.793.91-3.705.47z" fill="#c3bdc9" fill-rule="evenodd"/><path d="M678.436 218.498l.188 3.659c2.263-1.46 4.386-1.91 7.41-8.866 1.236 12.33 1.394 24.317 8.584 26.784-3.715-8.473-3.722-17.777-3.987-26.736-.437.563-.875.97-1.313 1.36-2.958-1.712-3.865-3.082-5.44-4.644-.991 3.073-1.486 6.302-5.442 8.443z" fill="#cecad5" fill-rule="evenodd"/><path d="M683.779 188.699c.993.367 2.113.482 3.283.497l1.26 17.91-4.543-18.407z" fill="#dfdde2" fill-rule="evenodd"/><path d="M692.302 187.405l.598-.431c1.459 3.289 3.43 6.195 6.301 8.424l7.728 52.007-11.177-52.14c-.055 8.98-2.537 14.94-6.567 18.972l-.431-3.416c4.233-5.76 6.78-12.65 3.548-23.416z" fill="#c3bdc9" fill-rule="evenodd"/><path d="M704.11 199.346c1.172.707 2.52 1.282 4.046 1.724 4.692 15.688 6.463 46.614.299 57.81l-.53-4.245c-10.79-8.246-13.478-31.222-15.656-44.08l.332-.63c2.08 11.747 4.535 34.361 15.091 43.55 1.902-6.015 6.01-23.36-1.36-52.273-.544-.618-1.432-1.238-2.222-1.856z" fill="#c4bec9" fill-rule="evenodd"/><path d="M697.51 182.629c.928-.114 1.44-.049 2.918-.398l10.282 15.356-13.2-14.958zm11.044 18.573c1.49.51 3.383.938 5.307 1.36.058.47 15.042 39.002 25.506 41.957-13.377 2.657-20.097-20.806-28.823-34.66a248.124 248.124 0 00-1.99-8.657z" fill="#dfdde2" fill-rule="evenodd"/><path d="M706.814 178.019c-.128.2-.255.401-.47.515 6.097 9.442 6.246 15.196 5.442 20.358l2.486 3.236c1.238-7.222-.1-12.55-1.83-17.59l30.348 44.092-26.83-42.919 5.676.798c-4.73-1.588-9.519-2.131-14.822-8.49z" fill="#c3bdc9" fill-rule="evenodd"/><path d="M725.105 186.61c1.159.008 2.2-.06 2.985-.3 6.012 9.798 21.513 27.598 19.701 51.808l-1.89-3.682c-14.381-3.322-24.384-21.391-29.486-28.723 8.42 11.101 17.96 25.582 29.12 27.86.924-18.073-12.71-35.803-20.43-46.964z" fill="#c3bdc9" fill-rule="evenodd"/><path d="M728.25 186.274l.516.891c13.306 7.082 28.233 21.112 37.477 10.789-9.581 3.85-25.1-9.67-35.32-14.776l.47 2.205c-1.131.546-2.134.71-3.143.89zm-18.856-16.558c.035.38-.005.684-.094.939l16.558 10.272-15.104-12.055c-.364.386-.872.582-1.36.844z" fill="#dfdde2" fill-rule="evenodd"/><path d="M730.014 179.379c.289 1.104.623 2.162.796 3.383 19.805 9.16 31.675 6.904 37.412 3.316l-3.051-1.127c-8.718 5.768-29.815-2.023-35.157-5.572z" fill="#c3bdc9" fill-rule="evenodd"/><path d="M714.292 163.724c0 .265-.103.53-.199.796 8.408 4.435 14.294 12.67 14.063 18.341l2.853 2.355c-1.099-9.48-4.499-13.026-7.927-16.55l40.232 15.754-39.071-18.308c5.21-1.184 10.643-1.48 15.124-6.899l9.22-.332c7.864-1.207 16.804-5.759 17.712-10.016l-2.952.331c-3.776 8.345-18.653 8.058-26.368 8.359-3.575 6.705-14.949 7.204-22.687 6.169z" fill="#c3bdc9" fill-rule="evenodd"/><path d="M736.78 161.9a12.822 12.822 0 01-3.151 1.857c4.205.89 8.121 2.028 11.708 3.45 10.405 1.09 20.711-.498 21.16-9.354-4.372 7.051-16.848 5.751-29.717 4.047zm-22.653-6.203c.283.862.394 1.622.563 2.454l21.327-.563c-7.298-.63-14.759-1.178-21.89-1.891z" fill="#dfdde2" fill-rule="evenodd"/><path d="M724.408 147.107c4.338 1.976 8.289 4.192 11.476 6.7l-2.819-2.588c9.122-.75 18.4-1.479 28.657-2.056l-32.438-.199-4.876-1.857zm-6.853.751c-.097.454-.34.907-.516 1.36l7.13-2.063c10.669-7.65 11.175-11.477 12.524-15.62l16.276-10.132-18.48 9.194c-10.038.097-12.604 1.488-15.667 2.299 8.507-1.844 14.101-2.16 17.214-1.173l-1.97 1.22c-2.567 8.471-12.14 13.405-16.51 14.915z" fill="#c3bdc9" fill-rule="evenodd"/><path d="M717.476 140.905c.306.538.352 1.206.498 1.824 5.092-2.725 9.848-5.785 14.594-8.856-5.03 2.469-10.061 4.989-15.092 7.032zm13.732 1.061c5.728-.484 11.552-.62 17.545-.133 1.4-.788 15.916-5.025 12.405-12.703-4.175 8.408-19.676 11.287-20.896 11.974-2.437.248-8.459.492-9.054.862z" fill="#dfdde2" fill-rule="evenodd"/><path d="M755.154 120.34l3.218-1.392c.343.651-1.984 5.025-6.107 9.599-5.383 5.966-8.548 8.551-18.802 10.4.2-.273.383-.547.539-.82 7.928-2.158 18.837-9.891 21.152-17.786z" fill="#dfdce1" fill-rule="evenodd"/><path d="M721.058 128.765l-.928 1.46c9.142-6.589 16.374-10.614 21.89-12.339 5.476-5.786 6.725-11.503 4.445-14.825.35 10.696-16.633 18.697-25.407 25.704z" fill="#dfdde2" fill-rule="evenodd"/><path d="M715.188 132.845l-.332 2.72c6.758-4.933 10.396-13.89 9.453-21.46l-2.421 2.488-10.548 8.557c.568.509 1.19 1.017 1.593 1.526l8.955-9.818c.592 8.088-4.856 14.368-6.7 15.987z" fill="#c3bec9" fill-rule="evenodd"/><path d="M724.375 120.175l-.63 2.255c4.363-2.748 7.421-5.633 10.116-8.557 7.547-8.774 8.53-16.4 9.154-20.066l-3.25 2.62c.525 11.148-11.972 21.89-15.39 23.748z" fill="#dfdde2" fill-rule="evenodd"/><path d="M720.66 113.906c1.26-.053 2.521-.088 3.782.034l14.825-17.015-18.607 16.981zm-10.912-9.651l-1.824 2.122c.78 4.181.75 9.81-5.44 16.65l.2.365.431-.133c4.903-6.107 10.062-7.693 15.224-9.22-3.006.748-6.004 1.24-9.387 2.985 2.308-7.003 1.28-10.59.796-12.77z" fill="#c3bdc9" fill-rule="evenodd"/><path d="M710.445 109.827l-.033 1.36c5.304-3.261 10.675-7.225 15.522-12.637 2.831-3.646 6.467-8.759 6.899-15.722l-2.786 2.19c-.551 11.576-15.47 21.546-19.602 24.809zm-12.04-1.493c4.302-1.86 8.5-3.623 11.41-4.179l18.673-17.346c-4.993 3.614-15.489 12.698-20.428 16.385-1.7 1.269-3.408 1.228-9.655 5.14z" fill="#dfdde2" fill-rule="evenodd"/><path d="M729.483 85.15c-47.211 8.24-73.436 65.197-41.857 60.066l-1.758-.43c-6.318.556-7.935-4.949-7.32-8.434.56-3.804 4.187-5.894 5.23-6.252-.28-3.358-.39-6.688 2.886-9.494 1.315-3.178 2.814-4.814 4.312-6.467 4.962-17.969 30.003-26.919 38.507-28.988z" fill="#f1eef0" fill-rule="evenodd"/><path d="M707.493 106.245c-5.9.859-13.99 7.388-15.216 10.115-.123.275.068.664-2.03 1.792l.099.365c2.026-.861 7.509-.036 2.354 1.26 3.381-.091 6.322 1.245 8.292 5.738 10.913-1.662 13.616 6.314 10.88 11.609 7.192 6.236 2.643 14.267-1.294 15.754 2.399 5.335 3.666 12.425-3.682 15.157-.02 4.76-.678 12.17-11.94 12.073-1.348 3.206-5.348 8.684-12.14 5.771 0 0-.007.197-.066.398-.11.375 2.808 1.107 2.853.929 2.314.266 2.584 1.78-.232 1.128-1.022-.303-1.927-.55-2.654-.896.016.243.025.487-.133.73 7.334 2.534 11.563-1.897 13.864-5.705 8.744-.458 12.363-5.278 12.803-12.802 7.161-4.488 6.153-11.252 3.947-15.92 6.38-4.772 5.924-13.15 1.094-17.049 3.28-11.005-6.533-13.972-11.708-13.2-1.74-2.933-2.879-3.359-4.112-4.18l9.253-12.57-11.243 11.576c-1.121-.385-2.584-.555-4.412-.498 2.383-5.99 11.737-10.528 15.423-11.575z" fill="#c3bdc9" fill-rule="evenodd"/><path d="M621.49 93.11c1.403 2.094 3.757-.585 7.695 3.55l.465-.2c-.886-3.557-3.29-5.722-6.833-6.103 1.51 1.327.41 1.405.352 2.253-.052.745.022 1.657-1.679.5zm-6.235 6.435c2.137-1.161 6.795-2.905 9.751 1.26 9.315-2.724 15.903-.226 16.816 3.516.577-1.018-2.05-6.654-12.67-5.705-9.07-6.343-14.212-.608-13.897.929z" fill="#dfa12f" fill-rule="evenodd"/><path d="M629.45 107.539c-1.616-.068 3.42-6.02 11.675-.332 2.96 1.157 4.37-.352 3.815-2.787-.197-1.793-1.189-2.791-1.791-4.178 4.151 3.117 4.656 6.962 1.843 8.51-4.371 2.18-7.444-5.576-15.541-1.213z" fill="#dea12f" fill-rule="evenodd"/><path d="M622.614 192.443l1.822 2.638-.503-.314c-5.187 2.48-7.865 1.508-10.426.377l-.251-.189c-5.33 1.054-8.722-.345-11.557-2.45.201 1.587 1.313 2.808 2.764 3.895l-5.59 24.495 2.7-22.988c-3.205 8.978-7.402 13.176-13.189 15.702l.44-2.513c5.287-2.703 9.808-7.825 11.933-18.904-2.107.28-4.217.54-6.406 0l-5.276 18.15 2.512-18.779c-2.292-1.518-4.212-3.408-6.092-5.339v-.313c.566.805 1.15-1.639 1.068-2.387 3.943 6.424 9.562 7.625 15.01 5.778-.02.608.01 1.147-.25 2.073l.25-.063c.229-.014.322-.582.472-1.068-.162-.11-.202-.374-.283-.565l.063-.188c3.014 5.426 10.5 2.884 11.43 3.329-.114.289.066 1.071.19 1.758l.125.189c.146-.315.167-.754.063-1.32l-.252-.502.22.126c2.558 1.898 6.057 1.773 9.013-.628z" fill="#c3bdc9" fill-rule="evenodd"/><path d="M605.248 196.776c1.717.802 3.511 1.466 5.464 1.853-.92 11.49-6.741 24.628-12.875 28.515l.157-3.235c-1.502-2.51-2.692-6.535-3.015-14.76l.502-.502c.14 5.728.761 10.992 2.67 15.01 2.917-2.19 9.288-9.497 10.269-23.552.054-.859-.181-1.397-.66-1.664-1.144-.631-1.831-1.149-2.512-1.665z" fill="#c1c0c8" fill-rule="evenodd"/><path d="M583.045 245.39c6.629 1.767 11.017-11.022 13.54-19.633-1.158-2.307-2.812-4.699-2.925-15.163l-.565.565c-.702 13.412-.826 28.22-10.05 34.23z" fill="#c3bdc9" fill-rule="evenodd"/><path d="M586.22 186.978l.4.4c-.498 2.533-3.92 11.73.31 20.695-2.366-3.49-4.341-9.016-.71-21.095z" fill="#dfdde3" fill-rule="evenodd"/><path d="M582.622 192.618l-1.288 2.043-14.078 57.158 14.922-47.61c.74 2.774 1.672 5.654 5.551 10.17-5.477 19.43-14.165 36.778-21.628 41.348l.71-2.354c-3.179-9.625-.633-29.847 4.797-50.185-3.467 11.147-10.616 35.53-6.084 53.294l-1.422 4.397c14.774-10.092 23.463-35.38 26.736-48.276-.801.646-1.702.994-2.62 1.288-4.638-4.152-6.875-10.849-5.596-21.273z" fill="#c3bdc9" fill-rule="evenodd"/><path d="M573.75 176.615c.37 1.752 2.432 3.815 3.454 5.59.549.918 1.163 1.275 1.947.189l.628-1.005c1.542 1.732 3.642 2.649 6.72 2.135l-3.705 8.542c-4.298 8.33-10.02 10.13-15.702 12.122l1.759-3.266c7.395-.706 12.681-8 15.45-14.76-1.846-.414-3.625-1.137-5.707-2.494l-8.738 15.181 5.778-15.325c1.164-2.41-1.894-4.3-1.884-6.91z" fill="#c3bdc9" fill-rule="evenodd"/><path d="M570.233 203.183a26.438 26.438 0 01-3.266 1.13c-9.504 21.305-14.836 40.32-31.781 46.264 15.38 2.917 25.72-21.725 29.457-29.117 2.746-6.71 4.384-12.956 5.59-18.277z" fill="#cecad5" fill-rule="evenodd"/><path d="M572.363 177.207c-1.73 2.073-7.609 10.294-3.908 24.027l.31-.4c-2.648-9.107.11-19.257 3.598-23.627z" fill="#e0dee4" fill-rule="evenodd"/><path d="M566.025 189.334c-.496 3.566-.313 6.367-.158 9.201-11.528 20.419-30.781 39.266-41.892 40.04 14.173-18.986 28.347-38.606 42.52-57.909.911-.388 1.822-1.014 2.733-1.633-1.488 2.194-2.175 3.987-2.481 5.59l-38.972 49.964c13.024-1.08 34.367-31.938 37.559-40.26.023-2.493.337-3.821.69-4.993z" fill="#c3bdc9" fill-rule="evenodd"/><path d="M526.33 235.309l.91-1.13c-1.121-19.279 20.718-42.2 26.6-49.4-.976 2.088-28.814 26.541-27.51 50.53z" fill="#dfdce1" fill-rule="evenodd"/><path d="M510.503 200.796c3.27 5.124 8.77 8.33 29.394-4.208 4.124-4.546 8.248-9.22 12.373-13.127l-1.005-.063c-6.946 2.9-24.874 21.683-40.762 17.398z" fill="#dfdde2" fill-rule="evenodd"/><path d="M564.14 164.619c-2.64 1.096-12.852 4.793-13.88 16.267l-2.198 1.225c13.886 4.624 24.466-5.866 26.567-7.82-2.166-1.387-4.374-2.52-6.218-5.84l-1.821.878c-4.483 3.726-9.89 7.322-15.105 10.804l16.173-8.228c.937 1.05 2.013 2.136 4.27 3.517-9.8 6.732-17.46 6.396-21.197 5.433.541-6.634 4.5-12.28 13.41-16.236z" fill="#c3bdc9" fill-rule="evenodd"/><path d="M548.514 178.273c-.304 1.4-.66 2.85-.622 3.908-4.422 1.743-9.302 3.128-14.789 4.042-.31.088-1.758.643-2.31-.4-.63-.407-1.338-.51-2.087-.444-.128-.342-.822-.19-.91-.51 13.437-2.328 19.569-5.545 20.718-6.596z" fill="#cecad5" fill-rule="evenodd"/><path d="M533.458 168.37c-3.54 1.724-18.289 9.562-20.829 17.053 7.184 2.177 12.58.275 15.833-.033-.149-.206-.753-.165-.822-.5-5.363.775-11.765 1.136-13.545.09l1.332-.667c.415-6.357 15.618-14.315 18.031-15.944z" fill="#dfdde1" fill-rule="evenodd"/><path d="M516.271 184.091c24.027-8.897 35.676-16.064 48.498-20.385v.444c-1.026.65-9.447 2.625-12.747 7.417l-35.751 12.524z" fill="#c3bdc9" fill-rule="evenodd"/><path d="M560.594 165.039c-1.664.697-3.28 1.253-5.019 2.176-7.846-1.14-9.123-3.1-12.48-4.708l.667-.266c1.243.903 2.781 1.61 4.263 2.354 2.3.776 2.861-.152.578-.977-2.756-.877-4.48-2.059-5.996-3.198 2.704-5.238 9.072-7.732 9.904-8.128-3.53 2.295-7.601 4.327-8.66 7.817 5.48-.812 11.29-1.772 18.43-3.331.538.949 1.062 1.886 2.088 3.242l-.178.222-1.066-1.288-19.141 1.466c5.31 3.633 10.976 3.979 16.61 4.619z" fill="#c3bdc9" fill-rule="evenodd"/><path d="M511.413 157.71c2.228 7.392 20.76 5.51 31.718 4.742l.565-.188c-.888-.618-1.663-1.235-2.135-1.853-4.558-.956-25.27 3.396-30.148-2.7zm34.921-4.05l.22.187c-1.298 1.095-2.596 2.045-3.894 3.612-17.167.038-27.973-6.802-31.027-10.772 4.246-3.431 9.604-4.637 15.262-5.244-4.863 1.444-10.558 2.286-13.158 5.37h-1.225c7.971 8.906 29.232 12.876 33.822 6.846z" fill="#dfdde2" fill-rule="evenodd"/><path d="M514.805 147.096c11.413 1.606 22.546 3.003 34.261 4.836 1.584-1.392 4.426-2.303 8.856-2.607-1.503-.04-2.748-.197-5.118.157-13.06.187-25.393-1.44-38-2.386zm48.927-1.727c-1.07 1.118-1.638 2.737-2.041 4.522-12.55-4.094-14.593-11.955-15.011-12.75 7.54-5.237 12.085-3.287 18.34-3.423-13.294-.619-16.79 2.86-17.367 3.548 4.991 1.367 8.52 2.633 19.22 4.397-1.023.726-1.667 1.398-2.105 2.041-4.133-1.687-11.77-4.03-17.209-6.155.859 3.625 6.47 9.083 11.18 10.489 1.316.348 2.754 1 3.266-.66.2-.684 1.24-1.756 1.727-2.01z" fill="#c3bdc9" fill-rule="evenodd"/><path d="M515.998 128.881c2.368 2.405 11.547 10.34 28.264 8.354.638 1.632 1.277 2.231 1.915 2.889-4.437-.676-8.89-1.167-13.41-.848-7.345-2.21-14.054-4.876-16.769-10.395zm34.105 3.455c.26.158.507.33.848.408-2.737 1.085-4.852 2.265-6.5 3.517-8.431-2.611-20.394-8.83-24.716-16.675 5.22-2.327 14.078-1.248 19.22 0-5.706-.053-12.52-1.214-15.922 1.036l-2.575-.91c1.025 3.35 18.96 18.984 29.645 12.624z" fill="#dfdde2" fill-rule="evenodd"/><path d="M523.943 121.062c10.712 3.743 20.879 7.446 29.426 11.023 2.666-.648 5.268-.466 7.85-.032-.593-.584-1.211-1.095-1.726-1.915l-.22.094 1.067 1.413c-14.527-4.953-25.258-7.647-36.397-10.583z" fill="#c3bdc9" fill-rule="evenodd"/><path d="M557.64 125.301c-.814-1.54-1.59-3.12-1.665-5.401-4.02 1.89-22.416-6.073-26.787-16.079.3 8.81 16.005 15.712 28.452 21.48z" fill="#dfdde2" fill-rule="evenodd"/><path d="M568.286 130.797c-.553.61-1.023 1.345-1.728 1.727-.358.23-.688.188-1.005 0-6.482-4.156-7.783-11.365-7.63-12.844 4.986-.847 11.957-.732 21.542 5.213-2.1-.446-9.19-5.665-20.538-4.71-.21 3.916 2.776 11.41 9.359 10.614z" fill="#c3bdc9" fill-rule="evenodd"/><path d="M559.807 120.842l11.493 8.385c1.487.077 2.973.036 4.46.753a8.58 8.58 0 01.47-1.224c-6.338-2.638-10.981-5.276-16.423-7.914z" fill="#c3bdc9" fill-rule="evenodd"/><path d="M533.858 94.069l3.064 1.82c-.397 6.952 11.93 20.472 25.67 21.54-2.246.23-4.738.17-6.528.933-6.49-4.021-10.865-8.303-14.478-12.036-.762.114-1.354-1.788-2.62-1.199-3.492-4.512-4.876-8.05-5.108-11.058z" fill="#dfdde2" fill-rule="evenodd"/><path d="M553.888 99.443c-4.593-1.782-8.764-3.824-16.744-3.509 12.383 8.978 19.145 14.634 28.246 21.673 4.157.623 8.169 2.47 12.214 4.042-.521-1.11-.93-2.221-1.155-3.331.065.932.046 1.865.622 2.797-5.408-1.555-27.651-17.374-38.55-24.426 4.107-1.292 9.913 1.114 15.367 2.754z" fill="#c4beca" fill-rule="evenodd"/><path d="M560.239 99.886c-4.997-4.34-10.55-9.275-11.814-16.21 5.829.692 17.208 4.62 26.025 10.97-8.213-4.711-15.965-8.241-22.294-8.127-.522 5.742 4.764 9.525 8.083 13.367z" fill="#dfdde2" fill-rule="evenodd"/><path d="M552.555 86.696l-.266.223c8.43 6.225 14.535 12.16 21.184 18.164 1.882 1.578 1.614 3.28 1.821 4.974.686-.8-.21-3.528 1.251-3.813 1.377-.263 6.652 2.468 6.965 2.037-12.438-5.515-20.714-14.323-30.955-21.585z" fill="#c3bdc9" fill-rule="evenodd"/><path d="M579.025 120.005c-1.194-1.919-3.034-7.838-1.821-11.813 16.008 3.459 18.696 16.052 18.964 18.563-2.36-9.129-11.068-17.414-17.054-16.343 3.663 3.368 8.133 10.277 10.925 13.235-1.323.067-2.648.133-3.509.488-2.245-.25-3.28.2-4.44.578-1.237-1.431-1.685-2.512-2.444-3.73 1.619 2.284 3.96 1.936 6.396 1.243-2.458-4.48-4.915-7.705-7.373-11.503-1.215.915-.066 5.693.356 9.282z" fill="#e0dee4" fill-rule="evenodd"/><path d="M585.464 102.95c27.232 18.073 29.289 47.777 10.037 42.903 23.095-2.775-3.975-37.08-10.037-42.902z" fill="#dfdde2" fill-rule="evenodd"/><path d="M586.72 124.234c2.239-.938 8.244-.834 8.51 8.416l-1.978 1.476c.04-2.533.442-8.248-6.532-9.892zm6.532 10.049l2.072-1.508c9.911 3.772 5.05 14.482-1.853 12.782 8.245-.843 6.467-11.352-.22-11.274z" fill="#c3bdc9" fill-rule="evenodd"/><path d="M625.21 64.83c1.348 2.35-2.394 9.405 4.051 8.345 2.184 1.375 4.144.629 5.125.635 4.27-1.488 4.147-4.434 4.417-5.223-3.706-5.215.448-6.21.903-6.54 2.293.279 3.47 4.508.39 5.857.244.195.619.163 1.123-.098-.045 6.775 4.767 7.247 8.102 6.15 6.57 1.796 3.385-5.804 6.491-11.47-3.527 6.209-1.253 11.853-6.393 11.128 1.322-3.205-2.171-5.702-.44-9.175-2.679 2.293 1.773 6.531 0 8.736-1.813 1.588-3.571.266-3.611-.439-.742-2.3 4.512-5.092 1.366-9.322 1.078 2.29.706 3.32.128 4.776s-2.8 2.775-1.787 5.668c-2.302-.455-3.497-3.187-2.86-5.342.63-2.124 1.708-5.685-2.314-6.835-5.078 1.526-2.494 5.545-1.882 6.261 1.247 1.35-1.04 5.426-3.901 5.404 1.31-2-.243-2.405-2.172-5.589-.142 1.693 3.846 3.979 1.561 5.32-1.171.937-2.83.386-3.514-.292-1.293-1.47 1.817-3.184 1.245-6.004-.834 4.135-2.036 3.89-1.88 5.857-1.496.426-3.057.966-3.544-1.89.032-3.922-.046-6.332-.604-5.919zm26.405 15.984l.073.414c-7.874.508-15.895-.999-23.623-1.171v-.366c7.822.192 14.006 1.566 23.55 1.123zm-12.129 1.342l-.024.317c4.522.707 9.051 1.422 12.812 1.05v-.342c-4.535.564-8.626-.346-12.788-1.025z" fill="#dfa12f" fill-rule="evenodd"/><path d="M628.676 75.664c-1.25.4-.662 2.231-.025 2.22 1.44.072 2.88.278 4.32.05.817-.385 1.085-1.829.17-2.416-1.513-.186-3.016-.185-4.465.146zm-.269-.244c2.485-.476 4.75-.17 6.028.073 1.144.305 1.148 2.299 0 2.71-1.3.119-4.095.09-6.004-.074-1.255-1.04-.603-2.298-.024-2.709zm8.932 2.22c3.243.426 5.985.678 5.295-1.854-.924.013-7.168-1.388-5.295 1.855zm-.098.343c-.439-.461-1.045-1.457.147-2.685 1.811-.128 3.663-.017 5.54.244 1.724.713 1.57 2.249.146 2.904-3.044-.003-4.664-.202-5.833-.463zm8.855.127c3.198.687 5.886 1.283 5.404-1.297-.922-.063-7.007-2.088-5.404 1.296zm-.125.332c-.4-.495-.923-1.537.364-2.664 4.591.237 3.82.293 5.502.693 1.66.85 1.382 2.369-.09 2.907-3.982.084-4.67-.568-5.776-.936z" fill="#e1a02f" fill-rule="evenodd"/><path d="M587.788 128.558l-5.097 15.017c1.419-.026 2.632.072 5.097-.438 2.302-4.729 2.778-11.426 0-14.579z" fill="#c3bdc9" fill-rule="evenodd"/><path d="M591.896 157.843l-9.21-14.233c-.223-.298-2.322 5.898-2.612 7.812 1.135 3.12 6.571 6.344 11.822 6.421z" fill="#fff" fill-rule="evenodd"/><path d="M590.387 146.823c3.226-1.157 3.847-3.103 3.891-4.271l-6.48.575c.92 1.16 1.86 2.36 2.59 3.696zm-10.75-10.78c-1.303-.864-5.53-1.167-6.415-.401l5.413 5.002c.218-1.464.523-3.156 1.002-4.6zm-12.225 15.423l15.179-7.822c.343-.146-1.819 5.995-2.526 7.796-1.804.928-9.33 2.724-12.653.026z" fill="#c3bdc9" fill-rule="evenodd"/><path fill="#dc143c" d="M0 400h1280v400H0z"/></svg>